<?plantuml 1.2026.1?><svg xmlns="http://www.w3.org/2000/svg" xmlns:xlink="http://www.w3.org/1999/xlink" contentStyleType="text/css" data-diagram-type="CLASS" height="1126px" preserveAspectRatio="none" style="width:1214px;height:1126px;background:#FAFAFA;" version="1.1" viewBox="0 0 1214 1126" width="1214px" zoomAndPan="magnify"><title>openSOUL &#8212; FalkorDB &#19977;&#35352;&#25014;&#22294;&#35676; Schema</title><defs/><g><rect fill="#FAFAFA" height="1126" style="stroke:none;stroke-width:1;" width="1214" x="0" y="0"/><g class="title" data-source-line="9"><text fill="#000000" font-family="'Noto Sans CJK TC'" font-size="22" font-weight="bold" lengthAdjust="spacing" textLength="464.5244" x="370.6588" y="36.2695">openSOUL &#8212; FalkorDB &#19977;&#35352;&#25014;&#22294;&#35676; Schema</text></g><!--cluster soul_semantic????????--><g class="cluster" data-qualified-name="soul_semantic........" data-source-line="11" id="ent0002"><path d="M414.5,705.1602 L629.9023,705.1602 A3.75,3.75 0 0 1 632.4023,707.6602 L639.4023,727.6484 L1129.5,727.6484 A2.5,2.5 0 0 1 1132,730.1484 L1132,1116.5202 A2.5,2.5 0 0 1 1129.5,1119.0202 L414.5,1119.0202 A2.5,2.5 0 0 1 412,1116.5202 L412,707.6602 A2.5,2.5 0 0 1 414.5,705.1602" fill="#DDFFDD" style="stroke:#000000;stroke-width:1;"/><line style="stroke:#000000;stroke-width:1;" x1="412" x2="639.4023" y1="727.6484" y2="727.6484"/><text fill="#000000" font-family="'Noto Sans CJK TC'" font-size="14" font-weight="bold" lengthAdjust="spacing" textLength="214.4023" x="416" y="720.6953">soul_semantic&#65288;&#35486;&#24847;&#35352;&#25014;&#22294;&#35676;&#65289;</text></g><!--cluster soul_episodic????????--><g class="cluster" data-qualified-name="soul_episodic........" data-source-line="37" id="ent0010"><path d="M13.5,366.7902 L224.2744,366.7902 A3.75,3.75 0 0 1 226.7744,369.2902 L233.7744,389.2784 L385.5,389.2784 A2.5,2.5 0 0 1 388,391.7784 L388,904.8302 A2.5,2.5 0 0 1 385.5,907.3302 L13.5,907.3302 A2.5,2.5 0 0 1 11,904.8302 L11,369.2902 A2.5,2.5 0 0 1 13.5,366.7902" fill="#DDEEFF" style="stroke:#000000;stroke-width:1;"/><line style="stroke:#000000;stroke-width:1;" x1="11" x2="233.7744" y1="389.2784" y2="389.2784"/><text fill="#000000" font-family="'Noto Sans CJK TC'" font-size="14" font-weight="bold" lengthAdjust="spacing" textLength="209.7744" x="15" y="382.3253">soul_episodic&#65288;&#24773;&#31680;&#35352;&#25014;&#22294;&#35676;&#65289;</text></g><!--cluster soul_procedural?????????--><g class="cluster" data-qualified-name="soul_procedural........." data-source-line="65" id="ent0016"><path d="M437.5,57.9102 L679.959,57.9102 A3.75,3.75 0 0 1 682.459,60.4102 L689.459,80.3984 L775.5,80.3984 A2.5,2.5 0 0 1 778,82.8984 L778,315.2902 A2.5,2.5 0 0 1 775.5,317.7902 L437.5,317.7902 A2.5,2.5 0 0 1 435,315.2902 L435,60.4102 A2.5,2.5 0 0 1 437.5,57.9102" fill="#FFFFCC" style="stroke:#000000;stroke-width:1;"/><line style="stroke:#000000;stroke-width:1;" x1="435" x2="689.459" y1="80.3984" y2="80.3984"/><text fill="#000000" font-family="'Noto Sans CJK TC'" font-size="14" font-weight="bold" lengthAdjust="spacing" textLength="241.459" x="439" y="73.4453">soul_procedural&#65288;&#31243;&#24207;&#24615;&#35352;&#25014;&#22294;&#35676;&#65289;</text></g><!--class Concept--><g class="entity" data-qualified-name="soul_semantic.........Concept" data-source-line="12" id="ent0003"><rect fill="#FEFEFE" height="159.418" rx="2.5" ry="2.5" style="stroke:#AAAAAA;stroke-width:1;" width="248.1201" x="427.94" y="740.1602"/><ellipse cx="520.2535" cy="754.1602" fill="#FFFFFF" rx="9" ry="9" style="stroke:#000000;stroke-width:1;"/><path d="M522.7266,760.3032 Q522.1456,760.6021 521.5064,760.7515 Q520.8672,760.9009 520.1617,760.9009 Q517.6548,760.9009 516.335,759.249 Q515.0152,757.5972 515.0152,754.4761 Q515.0152,751.3467 516.335,749.6948 Q517.6548,748.043 520.1617,748.043 Q520.8672,748.043 521.5147,748.1924 Q522.1622,748.3418 522.7266,748.6406 L522.7266,751.3633 Q522.0958,750.7822 521.5023,750.5125 Q520.9088,750.2427 520.2779,750.2427 Q518.9332,750.2427 518.2483,751.3093 Q517.5635,752.376 517.5635,754.4761 Q517.5635,756.5679 518.2483,757.6345 Q518.9332,758.7012 520.2779,758.7012 Q520.9088,758.7012 521.5023,758.4314 Q522.0958,758.1616 522.7266,757.5806 Z " fill="#000000"/><text fill="#000000" font-family="'Noto Sans CJK TC'" font-size="14" lengthAdjust="spacing" textLength="55.9932" x="537.7535" y="759.4512">Concept</text><line style="stroke:#AAAAAA;stroke-width:1;" x1="428.94" x2="675.0601" y1="768.1602" y2="768.1602"/><text fill="#000000" font-family="'Noto Sans CJK TC'" font-size="14" lengthAdjust="spacing" textLength="130.2656" x="433.94" y="785.6953">+id : String &#171;UUID&#187;</text><text fill="#000000" font-family="'Noto Sans CJK TC'" font-size="14" lengthAdjust="spacing" textLength="101.6777" x="433.94" y="802.1836">+name : String</text><text fill="#000000" font-family="'Noto Sans CJK TC'" font-size="14" lengthAdjust="spacing" textLength="236.1201" x="433.94" y="818.6719">+type : "entity"|"rule"|"abstraction"</text><text fill="#000000" font-family="'Noto Sans CJK TC'" font-size="14" lengthAdjust="spacing" textLength="140.4648" x="433.94" y="835.1602">+description : String</text><text fill="#000000" font-family="'Noto Sans CJK TC'" font-size="14" lengthAdjust="spacing" textLength="190.5723" x="433.94" y="851.6484">+embedding : vecf32[1536]</text><text fill="#000000" font-family="'Noto Sans CJK TC'" font-size="14" lengthAdjust="spacing" textLength="159.6875" x="433.94" y="868.1367">+created_at : DateTime</text><text fill="#000000" font-family="'Noto Sans CJK TC'" font-size="14" lengthAdjust="spacing" textLength="165.2998" x="433.94" y="884.625">+updated_at : DateTime</text><line style="stroke:#AAAAAA;stroke-width:1;" x1="428.94" x2="675.0601" y1="891.5781" y2="891.5781"/></g><!--class Rule--><g class="entity" data-qualified-name="soul_semantic.........Rule" data-source-line="22" id="ent0004"><rect fill="#FEFEFE" height="126.4414" rx="2.5" ry="2.5" style="stroke:#AAAAAA;stroke-width:1;" width="143.4619" x="585.27" y="976.5802"/><ellipse cx="638.5571" cy="990.5802" fill="#FFFFFF" rx="9" ry="9" style="stroke:#000000;stroke-width:1;"/><path d="M641.0303,996.7232 Q640.4492,997.0221 639.81,997.1715 Q639.1709,997.3209 638.4653,997.3209 Q635.9585,997.3209 634.6387,995.669 Q633.3188,994.0172 633.3188,990.8961 Q633.3188,987.7667 634.6387,986.1148 Q635.9585,984.463 638.4653,984.463 Q639.1709,984.463 639.8183,984.6124 Q640.4658,984.7618 641.0303,985.0606 L641.0303,987.7833 Q640.3994,987.2022 639.8059,986.9325 Q639.2124,986.6627 638.5815,986.6627 Q637.2368,986.6627 636.552,987.7293 Q635.8672,988.796 635.8672,990.8961 Q635.8672,992.9879 636.552,994.0545 Q637.2368,995.1212 638.5815,995.1212 Q639.2124,995.1212 639.8059,994.8514 Q640.3994,994.5816 641.0303,994.0006 Z " fill="#000000"/><text fill="#000000" font-family="'Noto Sans CJK TC'" font-size="14" lengthAdjust="spacing" textLength="29.3877" x="656.0571" y="995.8712">Rule</text><line style="stroke:#AAAAAA;stroke-width:1;" x1="586.27" x2="727.7319" y1="1004.5802" y2="1004.5802"/><text fill="#000000" font-family="'Noto Sans CJK TC'" font-size="14" lengthAdjust="spacing" textLength="130.2656" x="591.27" y="1022.1153">+id : String &#171;UUID&#187;</text><text fill="#000000" font-family="'Noto Sans CJK TC'" font-size="14" lengthAdjust="spacing" textLength="128.2764" x="591.27" y="1038.6036">+condition : String</text><text fill="#000000" font-family="'Noto Sans CJK TC'" font-size="14" lengthAdjust="spacing" textLength="105.8613" x="591.27" y="1055.0919">+action : String</text><text fill="#000000" font-family="'Noto Sans CJK TC'" font-size="14" lengthAdjust="spacing" textLength="131.4619" x="591.27" y="1071.5802">+confidence : Float</text><text fill="#000000" font-family="'Noto Sans CJK TC'" font-size="14" lengthAdjust="spacing" textLength="115.3359" x="591.27" y="1088.0684">+domain : String</text><line style="stroke:#AAAAAA;stroke-width:1;" x1="586.27" x2="727.7319" y1="1095.0216" y2="1095.0216"/></g><!--class Episode--><g class="entity" data-qualified-name="soul_episodic.........Episode" data-source-line="38" id="ent0011"><rect fill="#FEFEFE" height="225.3711" rx="2.5" ry="2.5" style="stroke:#AAAAAA;stroke-width:1;" width="202.5723" x="26.71" y="401.7902"/><ellipse cx="97.8492" cy="415.7902" fill="#FFFFFF" rx="9" ry="9" style="stroke:#000000;stroke-width:1;"/><path d="M100.3223,421.9332 Q99.7413,422.2321 99.1021,422.3815 Q98.4629,422.5309 97.7574,422.5309 Q95.2505,422.5309 93.9307,420.879 Q92.6109,419.2272 92.6109,416.1061 Q92.6109,412.9767 93.9307,411.3248 Q95.2505,409.673 97.7574,409.673 Q98.4629,409.673 99.1104,409.8224 Q99.7579,409.9718 100.3223,410.2706 L100.3223,412.9933 Q99.6914,412.4122 99.0979,412.1425 Q98.5044,411.8727 97.8736,411.8727 Q96.5288,411.8727 95.844,412.9393 Q95.1592,414.006 95.1592,416.1061 Q95.1592,418.1979 95.844,419.2645 Q96.5288,420.3312 97.8736,420.3312 Q98.5044,420.3312 99.0979,420.0614 Q99.6914,419.7916 100.3223,419.2106 Z " fill="#000000"/><text fill="#000000" font-family="'Noto Sans CJK TC'" font-size="14" lengthAdjust="spacing" textLength="52.7939" x="115.3492" y="421.0812">Episode</text><line style="stroke:#AAAAAA;stroke-width:1;" x1="27.71" x2="228.2823" y1="429.7902" y2="429.7902"/><text fill="#000000" font-family="'Noto Sans CJK TC'" font-size="14" lengthAdjust="spacing" textLength="130.2656" x="32.71" y="447.3253">+id : String &#171;UUID&#187;</text><text fill="#000000" font-family="'Noto Sans CJK TC'" font-size="14" lengthAdjust="spacing" textLength="115.8076" x="32.71" y="463.8136">+content : String</text><text fill="#000000" font-family="'Noto Sans CJK TC'" font-size="14" lengthAdjust="spacing" textLength="136.2129" x="32.71" y="480.3019">+user_input : String</text><text fill="#000000" font-family="'Noto Sans CJK TC'" font-size="14" lengthAdjust="spacing" textLength="171.2744" x="32.71" y="496.7902">+agent_response : String</text><text fill="#000000" font-family="'Noto Sans CJK TC'" font-size="14" lengthAdjust="spacing" textLength="190.5723" x="32.71" y="513.2784">+embedding : vecf32[1536]</text><text fill="#000000" font-family="'Noto Sans CJK TC'" font-size="14" lengthAdjust="spacing" textLength="161.5811" x="32.71" y="529.7667">+timestamp : DateTime</text><text fill="#000000" font-family="'Noto Sans CJK TC'" font-size="14" lengthAdjust="spacing" textLength="134.791" x="32.71" y="546.255">+session_id : String</text><text fill="#000000" font-family="'Noto Sans CJK TC'" font-size="14" lengthAdjust="spacing" textLength="126.3691" x="32.71" y="562.7433">+da_weight : Float</text><text fill="#000000" font-family="'Noto Sans CJK TC'" font-size="14" lengthAdjust="spacing" textLength="123.751" x="32.71" y="579.2316">+ht_weight : Float</text><text fill="#000000" font-family="'Noto Sans CJK TC'" font-size="14" lengthAdjust="spacing" textLength="155.3945" x="32.71" y="595.7198">+salience_score : Float</text><text fill="#000000" font-family="'Noto Sans CJK TC'" font-size="14" lengthAdjust="spacing" textLength="155.873" x="32.71" y="612.2081">+is_dreamed : Boolean</text><line style="stroke:#AAAAAA;stroke-width:1;" x1="27.71" x2="228.2823" y1="619.1612" y2="619.1612"/></g><!--class Entity--><g class="entity" data-qualified-name="soul_episodic.........Entity" data-source-line="52" id="ent0012"><rect fill="#FEFEFE" height="142.9297" rx="2.5" ry="2.5" style="stroke:#AAAAAA;stroke-width:1;" width="191.9697" x="32.02" y="748.4002"/><ellipse cx="105.1997" cy="762.4002" fill="#FFFFFF" rx="9" ry="9" style="stroke:#000000;stroke-width:1;"/><path d="M107.6728,768.5432 Q107.0918,768.8421 106.4526,768.9915 Q105.8135,769.1409 105.1079,769.1409 Q102.6011,769.1409 101.2812,767.489 Q99.9614,765.8372 99.9614,762.7161 Q99.9614,759.5867 101.2812,757.9348 Q102.6011,756.283 105.1079,756.283 Q105.8135,756.283 106.4609,756.4324 Q107.1084,756.5818 107.6728,756.8806 L107.6728,759.6033 Q107.042,759.0222 106.4485,758.7525 Q105.855,758.4827 105.2241,758.4827 Q103.8794,758.4827 103.1946,759.5493 Q102.5097,760.616 102.5097,762.7161 Q102.5097,764.8079 103.1946,765.8745 Q103.8794,766.9412 105.2241,766.9412 Q105.855,766.9412 106.4485,766.6714 Q107.042,766.4016 107.6728,765.8206 Z " fill="#000000"/><text fill="#000000" font-family="'Noto Sans CJK TC'" font-size="14" lengthAdjust="spacing" textLength="38.1104" x="122.6997" y="767.6912">Entity</text><line style="stroke:#AAAAAA;stroke-width:1;" x1="33.02" x2="222.9897" y1="776.4002" y2="776.4002"/><text fill="#000000" font-family="'Noto Sans CJK TC'" font-size="14" lengthAdjust="spacing" textLength="130.2656" x="38.02" y="793.9353">+id : String &#171;UUID&#187;</text><text fill="#000000" font-family="'Noto Sans CJK TC'" font-size="14" lengthAdjust="spacing" textLength="101.6777" x="38.02" y="810.4236">+name : String</text><text fill="#000000" font-family="'Noto Sans CJK TC'" font-size="14" lengthAdjust="spacing" textLength="179.9697" x="38.02" y="826.9119">+type : "person"|"concept"</text><text fill="#000000" font-family="'Noto Sans CJK TC'" font-size="14" lengthAdjust="spacing" textLength="99.333" x="64.5981" y="843.4002">|"action"|"tool"</text><text fill="#000000" font-family="'Noto Sans CJK TC'" font-size="14" lengthAdjust="spacing" textLength="140.4648" x="38.02" y="859.8884">+description : String</text><text fill="#000000" font-family="'Noto Sans CJK TC'" font-size="14" lengthAdjust="spacing" textLength="175.2666" x="38.02" y="876.3767">+src : String &#171;Episode ID&#187;</text><line style="stroke:#AAAAAA;stroke-width:1;" x1="33.02" x2="222.9897" y1="883.3298" y2="883.3298"/></g><!--class Procedure--><g class="entity" data-qualified-name="soul_procedural..........Procedure" data-source-line="66" id="ent0017"><rect fill="#FEFEFE" height="208.8828" rx="2.5" ry="2.5" style="stroke:#AAAAAA;stroke-width:1;" width="202.5723" x="450.71" y="92.9102"/><ellipse cx="514.2134" cy="106.9102" fill="#FFFFFF" rx="9" ry="9" style="stroke:#000000;stroke-width:1;"/><path d="M516.6866,113.0532 Q516.1055,113.3521 515.4663,113.5015 Q514.8272,113.6509 514.1216,113.6509 Q511.6148,113.6509 510.295,111.999 Q508.9751,110.3472 508.9751,107.2261 Q508.9751,104.0967 510.295,102.4448 Q511.6148,100.793 514.1216,100.793 Q514.8272,100.793 515.4746,100.9424 Q516.1221,101.0918 516.6866,101.3906 L516.6866,104.1133 Q516.0557,103.5322 515.4622,103.2625 Q514.8687,102.9927 514.2378,102.9927 Q512.8931,102.9927 512.2083,104.0593 Q511.5235,105.126 511.5235,107.2261 Q511.5235,109.3179 512.2083,110.3845 Q512.8931,111.4512 514.2378,111.4512 Q514.8687,111.4512 515.4622,111.1814 Q516.0557,110.9116 516.6866,110.3306 Z " fill="#000000"/><text fill="#000000" font-family="'Noto Sans CJK TC'" font-size="14" lengthAdjust="spacing" textLength="68.0654" x="531.7134" y="112.2012">Procedure</text><line style="stroke:#AAAAAA;stroke-width:1;" x1="451.71" x2="652.2823" y1="120.9102" y2="120.9102"/><text fill="#000000" font-family="'Noto Sans CJK TC'" font-size="14" lengthAdjust="spacing" textLength="130.2656" x="456.71" y="138.4453">+id : String &#171;UUID&#187;</text><text fill="#000000" font-family="'Noto Sans CJK TC'" font-size="14" lengthAdjust="spacing" textLength="101.6777" x="456.71" y="154.9336">+name : String</text><text fill="#000000" font-family="'Noto Sans CJK TC'" font-size="14" lengthAdjust="spacing" textLength="140.4648" x="456.71" y="171.4219">+description : String</text><text fill="#000000" font-family="'Noto Sans CJK TC'" font-size="14" lengthAdjust="spacing" textLength="152.7217" x="456.71" y="187.9102">+steps : String &#171;JSON&#187;</text><text fill="#000000" font-family="'Noto Sans CJK TC'" font-size="14" lengthAdjust="spacing" textLength="190.5723" x="456.71" y="204.3984">+embedding : vecf32[1536]</text><text fill="#000000" font-family="'Noto Sans CJK TC'" font-size="14" lengthAdjust="spacing" textLength="170.0576" x="456.71" y="220.8867">+success_count : Integer</text><text fill="#000000" font-family="'Noto Sans CJK TC'" font-size="14" lengthAdjust="spacing" textLength="161.0068" x="456.71" y="237.375">+failure_count : Integer</text><text fill="#000000" font-family="'Noto Sans CJK TC'" font-size="14" lengthAdjust="spacing" textLength="115.3359" x="456.71" y="253.8633">+domain : String</text><text fill="#000000" font-family="'Noto Sans CJK TC'" font-size="14" lengthAdjust="spacing" textLength="159.6875" x="456.71" y="270.3516">+created_at : DateTime</text><text fill="#000000" font-family="'Noto Sans CJK TC'" font-size="14" lengthAdjust="spacing" textLength="153.0293" x="456.71" y="286.8398">+last_used : DateTime</text><line style="stroke:#AAAAAA;stroke-width:1;" x1="451.71" x2="652.2823" y1="293.793" y2="293.793"/></g><g class="entity" data-qualified-name="GMN23" data-source-line="88" id="ent0024"><path d="M105.67,1011.8302 L105.67,1067.7618 A0,0 0 0 0 105.67,1067.7618 L396.3375,1067.7618 A0,0 0 0 0 396.3375,1067.7618 L396.3375,1021.8302 L386.3375,1011.8302 L292.65,1011.8302 L442.91,899.8602 L284.65,1011.8302 L105.67,1011.8302 A0,0 0 0 0 105.67,1011.8302" fill="#FFFFFF" style="stroke:#000000;stroke-width:1;"/><path d="M386.3375,1011.8302 L386.3375,1021.8302 L396.3375,1021.8302 L386.3375,1011.8302" fill="#FFFFFF" style="stroke:#000000;stroke-width:1;"/><text fill="#000000" font-family="'Noto Sans CJK TC'" font-size="13" lengthAdjust="spacing" textLength="91" x="111.67" y="1029.3985">&#37002;&#32227;&#27402;&#37325;&#20844;&#24335;&#65306;</text><text fill="#000000" font-family="'Noto Sans CJK TC'" font-size="13" lengthAdjust="spacing" textLength="269.604" x="111.67" y="1044.7091">W = &#945;&#183;Recency + &#946;&#183;Frequency + &#947;&#183;Salience</text><text fill="#000000" font-family="'Noto Sans CJK TC'" font-size="13" lengthAdjust="spacing" textLength="269.6675" x="111.67" y="1060.0196">Recency = exp(&#8722;&#955;&#183;t), &#945;=0.3, &#946;=0.4, &#947;=0.3</text></g><!--link Concept to Concept--><g class="link" data-entity-1="ent0003" data-entity-2="ent0003" data-link-type="dependency" data-source-line="30" id="lnk5"><path codeLine="30" d="M676.37,813.0202 C696.91,813.9902 711.06,816.2702 711.06,819.8702 C711.06,823.4702 702.9033,825.4671 682.3633,826.4371" fill="none" id="Concept-to-Concept" style="stroke:#000000;stroke-width:1;"/><polygon fill="#000000" points="676.37,826.7202,685.5487,830.2912,681.3644,826.4843,685.1713,822.3001,676.37,826.7202" style="stroke:#000000;stroke-width:1;"/><text fill="#000000" font-family="'Noto Sans CJK TC'" font-size="13" lengthAdjust="spacing" textLength="78.2539" x="757.0217" y="786.9385">RELATES_TO</text><text fill="#000000" font-family="'Noto Sans CJK TC'" font-size="13" lengthAdjust="spacing" textLength="85.2617" x="753.5178" y="802.2491">{weight: Float</text><text fill="#000000" font-family="'Noto Sans CJK TC'" font-size="13" lengthAdjust="spacing" textLength="87.2549" x="752.5212" y="817.5596">frequency: Int</text><text fill="#000000" font-family="'Noto Sans CJK TC'" font-size="13" lengthAdjust="spacing" textLength="86.9629" x="752.6672" y="832.8702">recency: Float</text><text fill="#000000" font-family="'Noto Sans CJK TC'" font-size="13" lengthAdjust="spacing" textLength="89.5146" x="751.3913" y="848.1807">salience: Float</text><text fill="#000000" font-family="'Noto Sans CJK TC'" font-size="13" lengthAdjust="spacing" textLength="158.1772" x="717.06" y="863.4912">last_accessed: DateTime}</text><text fill="#000000" font-family="'Noto Sans CJK TC'" font-size="13" lengthAdjust="spacing" textLength="8.0679" x="684.1946" y="809.7236">u</text><text fill="#000000" font-family="'Noto Sans CJK TC'" font-size="13" lengthAdjust="spacing" textLength="6.7285" x="684.1538" y="840.1725">v</text></g><!--link Concept to Concept--><g class="link" data-entity-1="ent0003" data-entity-2="ent0003" data-link-type="dependency" data-source-line="33" id="lnk8"><path codeLine="33" d="M676.27,806.3102 C771.57,802.6702 881.06,807.1902 881.06,819.8702 C881.06,832.5502 777.5656,837.2992 682.2656,833.6592" fill="none" id="Concept-to-Concept-1" style="stroke:#000000;stroke-width:1;"/><polygon fill="#000000" points="676.27,833.4302,685.1108,837.7707,681.2664,833.621,685.4161,829.7766,676.27,833.4302" style="stroke:#000000;stroke-width:1;"/><text fill="#000000" font-family="'Noto Sans CJK TC'" font-size="13" lengthAdjust="spacing" textLength="91.8062" x="887.06" y="824.9385">CONTRADICTS</text></g><!--link Concept to Concept--><g class="link" data-entity-1="ent0003" data-entity-2="ent0003" data-link-type="dependency" data-source-line="34" id="lnk9"><path codeLine="34" d="M676.43,801.4202 C807.47,792.9002 984.06,799.0502 984.06,819.8702 C984.06,840.6902 813.4574,847.2294 682.4174,838.7094" fill="none" id="Concept-to-Concept-2" style="stroke:#000000;stroke-width:1;"/><polygon fill="#000000" points="676.43,838.3202,685.1515,842.8957,681.4195,838.6446,685.6706,834.9125,676.43,838.3202" style="stroke:#000000;stroke-width:1;"/><text fill="#000000" font-family="'Noto Sans CJK TC'" font-size="13" lengthAdjust="spacing" textLength="101.1118" x="990.06" y="809.9385">LATENT_BRIDGE</text><text fill="#000000" font-family="'Noto Sans CJK TC'" font-size="13" lengthAdjust="spacing" textLength="65.6221" x="1007.8049" y="825.2491">&#171;&#22818;&#22659;&#25463;&#24465;&#187;</text><text fill="#000000" font-family="'Noto Sans CJK TC'" font-size="13" lengthAdjust="spacing" textLength="96.2178" x="992.507" y="840.5596">{reason: String}</text></g><!--link Concept to Rule--><g class="link" data-entity-1="ent0003" data-entity-2="ent0004" data-link-type="dependency" data-source-line="31" id="lnk6"><path codeLine="31" d="M539.37,899.8902 C539.74,915.8902 542.37,932.2102 549,946.5802 C557.1,964.1502 565.9171,975.621 580.4571,988.621" fill="none" id="Concept-to-Rule" style="stroke:#000000;stroke-width:1;"/><polygon fill="#000000" points="584.93,992.6202,580.8868,983.6395,581.2026,989.2875,575.5546,989.6034,584.93,992.6202" style="stroke:#000000;stroke-width:1;"/><text fill="#000000" font-family="'Noto Sans CJK TC'" font-size="13" lengthAdjust="spacing" textLength="63.229" x="550" y="943.1485">HAS_RULE</text></g><!--link Rule to Concept--><g class="link" data-entity-1="ent0004" data-entity-2="ent0003" data-link-type="dependency" data-source-line="32" id="lnk7"><path codeLine="32" d="M637.07,976.1102 C631.49,960.6502 625.01,944.3002 618,929.5802 C613.35,919.8102 610.9983,915.0315 605.4883,905.2215" fill="none" id="Rule-to-Concept" style="stroke:#000000;stroke-width:1;"/><polygon fill="#000000" points="602.55,899.9902,603.4699,909.796,604.9986,904.3496,610.4449,905.8783,602.55,899.9902" style="stroke:#000000;stroke-width:1;"/><text fill="#000000" font-family="'Noto Sans CJK TC'" font-size="13" lengthAdjust="spacing" textLength="72.8838" x="625.48" y="943.1485">APPLIES_TO</text></g><!--link Episode to Episode--><g class="link" data-entity-1="ent0011" data-entity-2="ent0011" data-link-type="dependency" data-source-line="60" id="lnk13"><path codeLine="60" d="M229.64,485.9502 C249.86,489.1602 264.29,498.6702 264.29,514.4802 C264.29,530.2802 255.7858,538.8494 235.5658,542.0594" fill="none" id="Episode-to-Episode" style="stroke:#000000;stroke-width:1;"/><polygon fill="#000000" points="229.64,543.0002,239.1558,545.5396,234.5782,542.2162,237.9015,537.6385,229.64,543.0002" style="stroke:#000000;stroke-width:1;"/><text fill="#000000" font-family="'Noto Sans CJK TC'" font-size="13" lengthAdjust="spacing" textLength="62.2769" x="295.7314" y="512.0485">PRECEDES</text><text fill="#000000" font-family="'Noto Sans CJK TC'" font-size="13" lengthAdjust="spacing" textLength="113.1597" x="270.29" y="527.3591">{time_delta: Float}</text></g><!--link Episode to Entity--><g class="link" data-entity-1="ent0011" data-entity-2="ent0012" data-link-type="dependency" data-source-line="61" id="lnk14"><path codeLine="61" d="M128,627.5902 C128,667.9302 128,706.2902 128,742.1202" fill="none" id="Episode-to-Entity" style="stroke:#000000;stroke-width:1;"/><polygon fill="#000000" points="128,748.1202,132,739.1202,128,743.1202,124,739.1202,128,748.1202" style="stroke:#000000;stroke-width:1;"/><text fill="#000000" font-family="'Noto Sans CJK TC'" font-size="13" lengthAdjust="spacing" textLength="66.5171" x="129" y="678.2285">MENTIONS</text></g><!--link Entity to Entity--><g class="link" data-entity-1="ent0012" data-entity-2="ent0012" data-link-type="dependency" data-source-line="62" id="lnk15"><path codeLine="62" d="M224.24,798.4502 C244.43,800.6702 258.98,807.8102 258.98,819.8702 C258.98,831.9302 250.3941,838.4144 230.2041,840.6344" fill="none" id="Entity-to-Entity" style="stroke:#000000;stroke-width:1;"/><polygon fill="#000000" points="224.24,841.2902,233.6233,844.2825,229.21,840.7437,232.7489,836.3304,224.24,841.2902" style="stroke:#000000;stroke-width:1;"/><text fill="#000000" font-family="'Noto Sans CJK TC'" font-size="13" lengthAdjust="spacing" textLength="93.1011" x="264.98" y="817.4385">TRIGGERED_BY</text><text fill="#000000" font-family="'Noto Sans CJK TC'" font-size="13" lengthAdjust="spacing" textLength="52.6221" x="285.2195" y="832.7491">&#171;&#32218;&#32034;&#37832;&#187;</text></g><!--link Procedure to Procedure--><g class="link" data-entity-1="ent0017" data-entity-2="ent0017" data-link-type="dependency" data-source-line="79" id="lnk18"><path codeLine="79" d="M653.64,171.2902 C673.86,174.2302 688.29,182.9102 688.29,197.3502 C688.29,211.7902 679.798,219.6097 659.578,222.5397" fill="none" id="Procedure-to-Procedure" style="stroke:#000000;stroke-width:1;"/><polygon fill="#000000" points="653.64,223.4002,663.1206,226.0681,658.5883,222.6831,661.9733,218.1508,653.64,223.4002" style="stroke:#000000;stroke-width:1;"/><text fill="#000000" font-family="'Noto Sans CJK TC'" font-size="13" lengthAdjust="spacing" textLength="49.6323" x="709.0166" y="194.9185">REFINES</text><text fill="#000000" font-family="'Noto Sans CJK TC'" font-size="13" lengthAdjust="spacing" textLength="79.0854" x="694.29" y="210.2291">{version: Int}</text></g><!--link Procedure to Concept--><g class="link" data-entity-1="ent0017" data-entity-2="ent0003" data-link-type="dependency" data-source-line="80" id="lnk19"><path codeLine="80" d="M552,302.2102 C552,425.5502 552,622.5402 552,733.8202" fill="none" id="Procedure-to-Concept" style="stroke:#000000;stroke-width:1;"/><polygon fill="#000000" points="552,739.8202,556,730.8202,552,734.8202,548,730.8202,552,739.8202" style="stroke:#000000;stroke-width:1;"/><text fill="#000000" font-family="'Noto Sans CJK TC'" font-size="13" lengthAdjust="spacing" textLength="72.8838" x="553" y="519.5485">APPLIES_TO</text></g><!--link Procedure to Episode--><g class="link" data-entity-1="ent0017" data-entity-2="ent0011" data-link-type="dependency" data-source-line="81" id="lnk20"><path codeLine="81" d="M450.32,273.5102 C423.83,293.1102 395.34,314.2302 369,333.7902 C323.23,367.7902 277.4391,401.9123 234.4791,433.9623" fill="none" id="Procedure-to-Episode" style="stroke:#000000;stroke-width:1;"/><polygon fill="#000000" points="229.67,437.5502,239.2756,435.3745,233.6776,434.5603,234.4918,428.9624,229.67,437.5502" style="stroke:#000000;stroke-width:1;"/><text fill="#000000" font-family="'Noto Sans CJK TC'" font-size="13" lengthAdjust="spacing" textLength="155.3779" x="370" y="347.3585">DERIVED_FROM_EPISODE</text></g><!--link Episode to Concept--><g class="link" data-entity-1="ent0011" data-entity-2="ent0003" data-link-type="dependency" data-source-line="84" id="lnk21"><path codeLine="84" d="M229.72,585.5602 C277.92,619.0202 336.17,659.8302 388,697.1602 C406.99,710.8402 422.2641,721.9849 441.6341,736.2949" fill="none" id="Episode-to-Concept" style="stroke:#000000;stroke-width:1;"/><polygon fill="#000000" points="446.46,739.8602,441.598,731.2951,442.4384,736.8891,436.8444,737.7296,446.46,739.8602" style="stroke:#000000;stroke-width:1;"/><text fill="#000000" font-family="'Noto Sans CJK TC'" font-size="13" lengthAdjust="spacing" textLength="72.4014" x="399.1146" y="670.7285">ACTIVATED</text><text fill="#000000" font-family="'Noto Sans CJK TC'" font-size="13" lengthAdjust="spacing" textLength="120.3706" x="375.13" y="686.0391">&#171;EcphoryRAG &#35320;&#30332;&#187;</text></g><!--link Procedure to Rule--><g class="link" data-entity-1="ent0017" data-entity-2="ent0004" data-link-type="dependency" data-source-line="85" id="lnk22"><path codeLine="85" d="M653.6,249.1202 C792.31,324.8702 1035.02,481.9602 1134,697.1602 C1174.52,785.2502 1193.36,838.6602 1134,915.3302 C1084.71,979.0002 855.9342,1015.0603 735.1442,1030.0703" fill="none" id="Procedure-to-Rule" style="stroke:#000000;stroke-width:1;"/><polygon fill="#000000" points="729.19,1030.8102,738.6146,1033.6698,734.1518,1030.1936,737.628,1025.7308,729.19,1030.8102" style="stroke:#000000;stroke-width:1;"/><text fill="#000000" font-family="'Noto Sans CJK TC'" font-size="13" lengthAdjust="spacing" textLength="69.1196" x="1132.9712" y="670.7285">VALIDATES</text><text fill="#000000" font-family="'Noto Sans CJK TC'" font-size="13" lengthAdjust="spacing" textLength="78.6221" x="1128.22" y="686.0391">&#171;&#22522;&#24213;&#26680;&#39511;&#35657;&#187;</text></g><?plantuml-src fLNTRXj55BxVfnYsDo08AWGGif98ZdStR4djQDS9GWIj9hlZP9Nrp38p6mYjfOXII8gg2CHlLG4AI2se5Q95E0eH5tc0FaI5xUGghy2PzThUs0aDuBrOxpbdvdpdd6--UKgka3f1SOH3gedLaCQOupeAI0qdaRGObMKCVhtC94CkfWALBhsEgYKz5xo4_TLbpX8Qb5Z4EBfW5TMJY_0ZBCJqI9Yfdf4mnWF2iv1Y-XiEAKh9mwL44jjdr0tV9-XYBYI6F7YPZAPxLJsQ9aCP4SHYGjtA_2nwlF4vid2qohWnZVxQtJgy-tNxezzRjxyyl7yRkJwq1sjQjYVI1KiYJu2Doj0_tjyy_FdRzeVR-JN7-riwkc0ObcKOw8g6kf1HYL6Vn3Ar8FGi2WDKG2xKGPVHnCJyl6rCJMKkgZhUSsOskHuhcquWhrpNh-eyYGYyy9AG7FioP5JFGWCYV1x6oZIy2walaI1GAGjeZVYryHVVUk7byLVUpjm-9rYImCCI_0RyhOPralcIE3ZLrz3w9Je0wJprmT22y3HutJg6hH1U2mC2xGEF5J4iUuMoEh0s7vw2wNLQJtGqniFb5JasXVGrlUye8CUSBLPDrwjM5kcLTucAoRPUf3LEtaaWste1sHI-EV6xNvbVu2XKOFe6g5rwsFU942GOzAQHWp862DBk5D1hHTTpvcTDyAOMvHe0AyxDpTefiA7LWv1IfLnrYePTghfdngZgobLlsh6D6NEHJaoqVjnfxLnhtsos_lnqQWgAXaaBHdkjQsYDOOwJE1GiI3dUldQzyyl6QHmtJSlASTnCrvoN0nAuF3phH13kmK5EHZo0Z4gF4n4pAiY_9BQ4UGY9w_4ehmMC3KZdvR3sw8MzBZM6QBSYJxVtYE49d_5XheR22w3dTQBIJ3CM4KnFdXupFTd_LnzYmc6k80n-bmpw8aNf3wIYgn9NTGdfpo4MWljv2BtXPa1Iv3rR_vZr30KqvvWbqp1Tu9hglXUGIEAi9utyKhMgMte1NGRMsfMo8dPcE-6kElRCZEcOXZVzfc9rftchyzlEqVOc81eXSCoPJuA4umWetBdxIMjlkxrnPvJ55lnAfHoBvxA5vB_EufzwAaaiyfjTSYlb_cPFOB58Kf7nVBZK5Fb0diWouPctXiC8G9_X7TNA9mb-Acjm7eDJz7xGelxa1oObhvPTJaU_1dGCbSu0ciR9XMVhticW0QKCqx4NOFYMKxdicNEsMp5CDVSybN9Rbghs0kYWePXY-l4Au-jESGOTtjdjVBCFFJ-P9fFdXUAiRQYx8LNDx_PQUr-qlzyz-kchm_jRi4QZJ1AqnAHaTSHglNG0-kY36vtc3-rxDuu-ljcwVg-rltsyVmliRw19zEZNWwRJlKQWiOyU73IjtYMZlXyUDDrCEzIja0LE8l9U_FJZpSyU_N7GbCyy1xjCNdn-7DuFuFqIl1-gRutG02bKsjy0?></g></svg>