<?plantuml 1.2026.1?><svg xmlns="http://www.w3.org/2000/svg" xmlns:xlink="http://www.w3.org/1999/xlink" contentStyleType="text/css" data-diagram-type="STATE" height="895px" preserveAspectRatio="none" style="width:743px;height:895px;background:#FAFAFA;" version="1.1" viewBox="0 0 743 895" width="743px" zoomAndPan="magnify"><title>openSOUL &#8212; &#31070;&#32147;&#21270;&#23416;&#29376;&#24907;&#27231;&#65288;DA / 5-HT&#65289;</title><defs/><g><rect fill="#FAFAFA" height="895" style="stroke:none;stroke-width:1;" width="743" x="0" y="0"/><g class="title" data-source-line="7"><text fill="#000000" font-family="'Noto Sans CJK TC'" font-size="22" font-weight="bold" lengthAdjust="spacing" textLength="471.6357" x="131.2893" y="36.2695">openSOUL &#8212; &#31070;&#32147;&#21270;&#23416;&#29376;&#24907;&#27231;&#65288;DA / 5-HT&#65289;</text></g><path d="M256.93,251.7702 L424.7581,251.7702 A12.5,12.5 0 0 1 437.2581,264.2702 L437.2581,278.2584 L244.43,278.2584 L244.43,264.2702 A12.5,12.5 0 0 1 256.93,251.7702" fill="#E3F2FD"/><path d="M244.43,278.2584 L437.2581,278.2584 L437.2581,592.7702 A12.5,12.5 0 0 1 424.7581,605.2702 L256.93,605.2702 A12.5,12.5 0 0 1 244.43,592.7702 L244.43,278.2584" fill="#FFFFFF"/><rect fill="none" height="353.5" rx="12.5" ry="12.5" style="stroke:#AAAAAA;stroke-width:1;" width="192.8281" x="244.43" y="251.7702"/><line style="stroke:#AAAAAA;stroke-width:1;" x1="244.43" x2="437.2581" y1="278.2584" y2="278.2584"/><text fill="#000000" font-family="'Noto Sans CJK TC'" font-size="14" lengthAdjust="spacing" textLength="60.0332" x="310.8275" y="270.3053">Balanced</text><g><rect fill="#FEFEFE" height="305.0117" rx="12.5" ry="12.5" style="stroke:#AAAAAA;stroke-width:1;" width="171.8281" x="256.43" y="290.2584"/><line style="stroke:#AAAAAA;stroke-width:1;" x1="256.43" x2="428.2581" y1="316.7467" y2="316.7467"/><text fill="#000000" font-family="'Noto Sans CJK TC'" font-size="14" lengthAdjust="spacing" textLength="30.3242" x="327.182" y="308.7936">note</text><text fill="#000000" font-family="'Noto Sans CJK TC'" font-size="12" lengthAdjust="spacing" textLength="72" x="261.43" y="333.3483">&#27491;&#24120;&#27298;&#32034;&#27169;&#24335;</text><text fill="#000000" font-family="'Noto Sans CJK TC'" font-size="12" lengthAdjust="spacing" textLength="71.5957" x="261.43" y="347.4811">&#20013;&#31561;&#24291;&#24230; BFS</text><text fill="#000000" font-family="'Noto Sans CJK TC'" font-size="12" lengthAdjust="spacing" textLength="102.5742" x="261.43" y="361.6139">&#27161;&#28310;&#39511;&#35657;&#38334;&#20540; (0.6)</text><text fill="#000000" font-family="'Noto Sans CJK TC'" font-size="12" lengthAdjust="spacing" textLength="72" x="261.43" y="375.7467">&#24555;&#36895;&#23416;&#32722;&#27169;&#24335;</text><text fill="#000000" font-family="'Noto Sans CJK TC'" font-size="12" lengthAdjust="spacing" textLength="96" x="261.43" y="389.8795">&#31309;&#26997;&#24375;&#21270;&#30070;&#21069;&#36335;&#24465;</text><text fill="#000000" font-family="'Noto Sans CJK TC'" font-size="12" lengthAdjust="spacing" textLength="151.8281" x="261.43" y="404.0123">&#25552;&#39640; RELATES_TO &#37002;&#32227;&#27402;&#37325;</text><text fill="#000000" font-family="'Noto Sans CJK TC'" font-size="12" lengthAdjust="spacing" textLength="79.5938" x="261.43" y="418.1452">&#23416;&#32722;&#29575; &#8594; &#26368;&#39640;</text><text fill="#000000" font-family="'Noto Sans CJK TC'" font-size="12" lengthAdjust="spacing" textLength="72" x="261.43" y="432.278">&#35641;&#24910;&#27770;&#31574;&#27169;&#24335;</text><text fill="#000000" font-family="'Noto Sans CJK TC'" font-size="12" lengthAdjust="spacing" textLength="103.4004" x="261.43" y="446.4108">&#24291;&#24230;&#20778;&#20808;&#25628;&#23563; (BFS)</text><text fill="#000000" font-family="'Noto Sans CJK TC'" font-size="12" lengthAdjust="spacing" textLength="107.5371" x="261.43" y="460.5436">&#22196;&#26684;&#20107;&#23526;&#39511;&#35657;&#38334;&#20540; &#8593;</text><text fill="#000000" font-family="'Noto Sans CJK TC'" font-size="12" lengthAdjust="spacing" textLength="72" x="261.43" y="474.6764">&#25918;&#24930;&#22238;&#35206;&#36895;&#24230;</text><text fill="#000000" font-family="'Noto Sans CJK TC'" font-size="12" lengthAdjust="spacing" textLength="96.9316" x="261.43" y="488.8092">&#39640; DA + &#20302; 5-HT</text><text fill="#000000" font-family="'Noto Sans CJK TC'" font-size="12" lengthAdjust="spacing" textLength="84" x="261.43" y="502.942">&#31309;&#26997;&#25506;&#32034;&#26032;&#36899;&#32080;</text><text fill="#000000" font-family="'Noto Sans CJK TC'" font-size="12" lengthAdjust="spacing" textLength="120" x="261.43" y="517.0748">&#39640;&#21109;&#36896;&#21147;&#65288;&#39080;&#38570;&#36611;&#39640;&#65289;</text><text fill="#000000" font-family="'Noto Sans CJK TC'" font-size="12" lengthAdjust="spacing" textLength="59.5371" x="261.43" y="531.2077">&#38931;&#24735;&#27231;&#29575; &#8593;</text><text fill="#000000" font-family="'Noto Sans CJK TC'" font-size="12" lengthAdjust="spacing" textLength="96.9316" x="261.43" y="545.3405">&#20302; DA + &#39640; 5-HT</text><text fill="#000000" font-family="'Noto Sans CJK TC'" font-size="12" lengthAdjust="spacing" textLength="48" x="261.43" y="559.4733">&#20445;&#23432;&#31574;&#30053;</text><text fill="#000000" font-family="'Noto Sans CJK TC'" font-size="12" lengthAdjust="spacing" textLength="96" x="261.43" y="573.6061">&#21482;&#20449;&#20219;&#39640;&#20449;&#24515;&#36335;&#24465;</text><text fill="#000000" font-family="'Noto Sans CJK TC'" font-size="12" lengthAdjust="spacing" textLength="84" x="261.43" y="587.7389">&#25298;&#32085;&#19981;&#30906;&#23450;&#31572;&#26696;</text></g><g><rect fill="#E8F5E9" height="50" rx="12.5" ry="12.5" style="stroke:#AAAAAA;stroke-width:1;" width="120.9873" x="37.35" y="697.2702"/><line style="stroke:#AAAAAA;stroke-width:1;" x1="37.35" x2="158.3373" y1="723.7584" y2="723.7584"/><text fill="#000000" font-family="'Noto Sans CJK TC'" font-size="14" lengthAdjust="spacing" textLength="100.9873" x="47.35" y="715.8053">HighDopamine</text></g><g><rect fill="#FFF8E1" height="50" rx="12.5" ry="12.5" style="stroke:#AAAAAA;stroke-width:1;" width="116.6807" x="402.5" y="697.2702"/><line style="stroke:#AAAAAA;stroke-width:1;" x1="402.5" x2="519.1807" y1="723.7584" y2="723.7584"/><text fill="#000000" font-family="'Noto Sans CJK TC'" font-size="14" lengthAdjust="spacing" textLength="96.6807" x="412.5" y="715.8053">HighSerotonin</text></g><g><rect fill="#F3E5F5" height="50" rx="12.5" ry="12.5" style="stroke:#AAAAAA;stroke-width:1;" width="69.2393" x="63.22" y="839.2702"/><line style="stroke:#AAAAAA;stroke-width:1;" x1="63.22" x2="132.4593" y1="865.7584" y2="865.7584"/><text fill="#000000" font-family="'Noto Sans CJK TC'" font-size="14" lengthAdjust="spacing" textLength="49.2393" x="73.22" y="857.8053">Excited</text></g><g><rect fill="#FBE9E7" height="50" rx="12.5" ry="12.5" style="stroke:#AAAAAA;stroke-width:1;" width="79.8145" x="491.93" y="839.2702"/><line style="stroke:#AAAAAA;stroke-width:1;" x1="491.93" x2="571.7445" y1="865.7584" y2="865.7584"/><text fill="#000000" font-family="'Noto Sans CJK TC'" font-size="14" lengthAdjust="spacing" textLength="59.8145" x="501.93" y="857.8053">Cautious</text></g><g class="entity" data-qualified-name="N1" data-source-line="46" id="ent0008"><path d="M385.46,57.9102 L385.46,159.7734 L736.2144,159.7734 L736.2144,67.9102 L726.2144,57.9102 L385.46,57.9102" fill="#FFFFFF" style="stroke:#000000;stroke-width:1;"/><path d="M726.2144,57.9102 L726.2144,67.9102 L736.2144,67.9102 L726.2144,57.9102" fill="#FFFFFF" style="stroke:#000000;stroke-width:1;"/><text fill="#000000" font-family="'Noto Sans CJK TC'" font-size="13" lengthAdjust="spacing" textLength="314.8818" x="391.46" y="75.4785">DA&#65288;&#22810;&#24052;&#33018;&#65289;&#39640; &#8594; &#23416;&#32722;&#29575; &#8593;, &#25506;&#32034; &#8593;, &#37002;&#32227;&#27402;&#37325;&#22686;&#24133; &#8593;</text><text fill="#000000" font-family="'Noto Sans CJK TC'" font-size="13" lengthAdjust="spacing" textLength="329.7544" x="391.46" y="90.7891">5-HT&#65288;&#34880;&#28165;&#32032;&#65289;&#39640; &#8594; &#39511;&#35657;&#38334;&#20540; &#8593;, BFS &#24291;&#24230; &#8593;, &#27770;&#31574;&#25918;&#24930;</text><text fill="#000000" font-family="'Noto Sans CJK TC'" font-size="13" lengthAdjust="spacing" textLength="4.1133" x="391.46" y="106.0996">&#160;</text><text fill="#000000" font-family="'Noto Sans CJK TC'" font-size="13" lengthAdjust="spacing" textLength="255.3154" x="391.46" y="121.4102">SOUL.md frontmatter &#21205;&#24907;&#21453;&#26144;&#30070;&#21069;&#29376;&#24907;&#65306;</text><text fill="#000000" font-family="'Noto Sans CJK TC'" font-size="13" lengthAdjust="spacing" textLength="126.4961" x="391.46" y="136.7207">dopamine_level: 0.x</text><text fill="#000000" font-family="'Noto Sans CJK TC'" font-size="13" lengthAdjust="spacing" textLength="123.6777" x="391.46" y="152.0313">serotonin_level: 0.x</text></g><ellipse cx="340.84" cy="108.8402" fill="#FFFFFF" rx="10" ry="10" style="stroke:#000000;stroke-width:1;"/><!--link *start* to Balanced--><g class="link" data-entity-1="ent0002" data-entity-2="ent0002" data-link-type="dependency" data-source-line="9" id="lnk3"><path d="M340.84,119.0002 C340.84,140.0102 340.84,188.2602 340.84,245.5202" fill="none" id="*start*-to-Balanced" style="stroke:#000000;stroke-width:1;"/><polygon fill="#000000" points="340.84,251.5202,344.84,242.5202,340.84,246.5202,336.84,242.5202,340.84,251.5202" style="stroke:#000000;stroke-width:1;"/><text fill="#000000" font-family="'Noto Sans CJK TC'" font-size="13" lengthAdjust="spacing" textLength="52" x="385.1786" y="203.3385">&#31995;&#32113;&#21855;&#21205;</text><text fill="#000000" font-family="'Noto Sans CJK TC'" font-size="13" lengthAdjust="spacing" textLength="138.6772" x="341.84" y="218.6491">DA = 0.5, 5-HT = 0.5</text></g><!--link Balanced to HighDopamine--><g class="link" data-entity-1="ent0002" data-entity-2="ent0004" data-link-type="dependency" data-source-line="31" id="lnk4"><path d="M244.09,461.6302 C167.43,492.7802 65.57,548.2702 17.84,635.2702 C11,647.7402 11.16,654.7102 17.84,667.2702 C24.21,679.2602 29.6427,685.622 40.8127,693.432" fill="none" id="Balanced-to-HighDopamine" style="stroke:#000000;stroke-width:1;"/><polygon fill="#000000" points="45.73,696.8702,40.6462,688.4348,41.6323,694.0051,36.062,694.9912,45.73,696.8702" style="stroke:#000000;stroke-width:1;"/><text fill="#000000" font-family="'Noto Sans CJK TC'" font-size="13" lengthAdjust="spacing" textLength="52" x="48.8966" y="648.8385">&#20219;&#21209;&#25104;&#21151;</text><text fill="#000000" font-family="'Noto Sans CJK TC'" font-size="13" lengthAdjust="spacing" textLength="112.1133" x="18.84" y="664.1491">&#20351;&#29992;&#32773;&#27491;&#21521;&#22238;&#39243; &#128077;</text></g><!--link HighDopamine to Balanced--><g class="link" data-entity-1="ent0004" data-entity-2="ent0002" data-link-type="dependency" data-source-line="34" id="lnk6"><path d="M118.11,696.9302 C145.85,663.6302 193.6698,606.2102 240.2598,550.2802" fill="none" id="HighDopamine-to-Balanced" style="stroke:#000000;stroke-width:1;"/><polygon fill="#000000" points="244.1,545.6702,235.2663,550.0251,240.8998,549.5119,241.4131,555.1454,244.1,545.6702" style="stroke:#000000;stroke-width:1;"/><text fill="#000000" font-family="'Noto Sans CJK TC'" font-size="13" lengthAdjust="spacing" textLength="124.5537" x="164.01" y="656.3385">&#33258;&#28982;&#34928;&#28187;&#65288;60 &#20998;&#37912;&#65289;</text></g><!--link Balanced to HighSerotonin--><g class="link" data-entity-1="ent0002" data-entity-2="ent0005" data-link-type="dependency" data-source-line="32" id="lnk5"><path d="M315.51,605.7502 C318.87,627.6302 325.76,648.7802 337.84,667.2702 C352.25,689.3302 372.1872,700.606 396.3572,708.366" fill="none" id="Balanced-to-HighSerotonin" style="stroke:#000000;stroke-width:1;"/><polygon fill="#000000" points="402.07,710.2002,394.7236,703.6404,397.3093,708.6717,392.2781,711.2575,402.07,710.2002" style="stroke:#000000;stroke-width:1;"/><text fill="#000000" font-family="'Noto Sans CJK TC'" font-size="13" lengthAdjust="spacing" textLength="91" x="338.84" y="648.8385">&#20597;&#28204;&#21040;&#19981;&#30906;&#23450;&#24615;</text><text fill="#000000" font-family="'Noto Sans CJK TC'" font-size="13" lengthAdjust="spacing" textLength="65" x="351.84" y="664.1491">&#25110;&#27169;&#31946;&#25351;&#20196;</text></g><!--link HighSerotonin to Balanced--><g class="link" data-entity-1="ent0005" data-entity-2="ent0002" data-link-type="dependency" data-source-line="35" id="lnk7"><path d="M454.41,696.8802 C449.61,679.5002 442.55,655.7002 434.84,635.2702 C431.16,625.5302 429.5124,621.1632 425.4324,611.1932" fill="none" id="HighSerotonin-to-Balanced" style="stroke:#000000;stroke-width:1;"/><polygon fill="#000000" points="423.16,605.6402,422.8667,615.4846,425.0537,610.2677,430.2707,612.4547,423.16,605.6402" style="stroke:#000000;stroke-width:1;"/><text fill="#000000" font-family="'Noto Sans CJK TC'" font-size="13" lengthAdjust="spacing" textLength="104" x="446.22" y="656.3385">&#25104;&#21151;&#35299;&#27770;&#19981;&#30906;&#23450;&#24615;</text></g><!--link HighDopamine to Excited--><g class="link" data-entity-1="ent0004" data-entity-2="ent0006" data-link-type="dependency" data-source-line="37" id="lnk8"><path d="M58.9,747.6302 C49.24,755.7702 40.14,765.7502 34.84,777.2702 C28.9,790.1902 28.9,796.3502 34.84,809.2702 C40.86,822.3602 47.0647,829.7627 58.1447,838.4327" fill="none" id="HighDopamine-to-Excited" style="stroke:#000000;stroke-width:1;"/><polygon fill="#000000" points="62.87,842.1302,58.2471,833.4337,58.9323,839.0489,53.317,839.7341,62.87,842.1302" style="stroke:#000000;stroke-width:1;"/><text fill="#000000" font-family="'Noto Sans CJK TC'" font-size="13" lengthAdjust="spacing" textLength="78" x="35.84" y="790.8385">&#36899;&#32396;&#22810;&#27425;&#25104;&#21151;</text><text fill="#000000" font-family="'Noto Sans CJK TC'" font-size="13" lengthAdjust="spacing" textLength="66.041" x="41.8195" y="806.1491">DA &gt; 0.85</text></g><!--link Excited to HighDopamine--><g class="link" data-entity-1="ent0006" data-entity-2="ent0004" data-link-type="dependency" data-source-line="40" id="lnk10"><path d="M109.55,838.8402 C113.3,829.7702 116.97,819.2602 118.84,809.2702 C121.46,795.2902 121.46,791.2502 118.84,777.2702 C116.97,767.2802 115.5925,762.3149 111.8425,753.2449" fill="none" id="Excited-to-HighDopamine" style="stroke:#000000;stroke-width:1;"/><polygon fill="#000000" points="109.55,747.7002,109.2922,757.5456,111.4604,752.3208,116.6853,754.489,109.55,747.7002" style="stroke:#000000;stroke-width:1;"/><text fill="#000000" font-family="'Noto Sans CJK TC'" font-size="13" lengthAdjust="spacing" textLength="52" x="141.31" y="790.8385">&#36935;&#21040;&#37679;&#35492;</text><text fill="#000000" font-family="'Noto Sans CJK TC'" font-size="13" lengthAdjust="spacing" textLength="91" x="121.81" y="806.1491">&#22522;&#24213;&#26680;&#35320;&#30332;&#25233;&#21046;</text></g><!--link HighSerotonin to Cautious--><g class="link" data-entity-1="ent0005" data-entity-2="ent0007" data-link-type="dependency" data-source-line="38" id="lnk9"><path d="M453.94,747.6102 C450.23,765.6202 448.16,790.2202 457.84,809.2702 C465.19,823.7302 473.3984,831.9717 486.6684,840.5917" fill="none" id="HighSerotonin-to-Cautious" style="stroke:#000000;stroke-width:1;"/><polygon fill="#000000" points="491.7,843.8602,486.3316,835.6031,487.507,841.1364,481.9736,842.3119,491.7,843.8602" style="stroke:#000000;stroke-width:1;"/><text fill="#000000" font-family="'Noto Sans CJK TC'" font-size="13" lengthAdjust="spacing" textLength="117" x="458.84" y="798.3385">&#22522;&#24213;&#26680;&#39511;&#35657;&#36899;&#32396;&#22833;&#25943;</text></g><!--link Cautious to Balanced--><g class="link" data-entity-1="ent0007" data-entity-2="ent0002" data-link-type="dependency" data-source-line="41" id="lnk11"><path d="M560.98,838.8302 C568.97,830.3802 576.6,820.2502 580.84,809.2702 C608.91,736.5502 595.11,704.2702 558.84,635.2702 C530.26,580.9102 486.3597,536.7423 442.3297,500.8323" fill="none" id="Cautious-to-Balanced" style="stroke:#000000;stroke-width:1;"/><polygon fill="#000000" points="437.68,497.0402,442.1264,505.8282,441.5547,500.2003,447.1826,499.6286,437.68,497.0402" style="stroke:#000000;stroke-width:1;"/><text fill="#000000" font-family="'Noto Sans CJK TC'" font-size="13" lengthAdjust="spacing" textLength="109.2876" x="596.79" y="719.8385">Dream Cycle &#23436;&#25104;</text><text fill="#000000" font-family="'Noto Sans CJK TC'" font-size="13" lengthAdjust="spacing" textLength="65" x="618.9338" y="735.1491">&#29376;&#24907;&#27491;&#35215;&#21270;</text></g><!--link Balanced to Balanced--><g class="link" data-entity-1="ent0002" data-entity-2="ent0002" data-link-type="dependency" data-source-line="43" id="lnk12"><path d="M437.69,388.2202 C457.79,392.4602 472.25,405.9002 472.25,428.5202 C472.25,451.1402 463.6608,463.3417 443.5608,467.5817" fill="none" id="Balanced-to-Balanced" style="stroke:#000000;stroke-width:1;"/><polygon fill="#000000" points="437.69,468.8202,447.3218,470.8764,442.5823,467.7881,445.6706,463.0487,437.69,468.8202" style="stroke:#000000;stroke-width:1;"/><text fill="#000000" font-family="'Noto Sans CJK TC'" font-size="13" lengthAdjust="spacing" textLength="109.2876" x="487.0574" y="426.0885">Dream Cycle &#23436;&#25104;</text><text fill="#000000" font-family="'Noto Sans CJK TC'" font-size="13" lengthAdjust="spacing" textLength="126.9023" x="478.25" y="441.3991">&#23450;&#26399;&#37325;&#32622;&#33267; (0.5, 0.5)</text></g><?plantuml-src XLLjJnfP5Fu-l-9k-wNkgckteMjDjWaYfDasDbdSJykccPLfImep1iPDDvjDQ2toBc25LkhAcw9IyIMAKa3vBuPxxymd-nFsN0PmG9Db4d8pzzpxdFCyppdpZVnIS0bepiaxHCxpoY7EyMxUXUp2StxUALiaKPxcOV_Mj2HBoCgB7cJw-J6QCTtI1V_1pxvwuPRcHRj9SafkTDjYP8ykmYFpiZ1vBSpCdcjXajikk3iXnlQFusI7x1IGD2U8rgU_Fa4NtXL4DzVfoNiSIU5obOQzn1ScEvdBHc3AYBv7Xf57CvUD8CVzzktlQ6Ja8PhadRmuAzZH1A97TLevnCaC3YTj8eJ_XCP63SFjCzgQuzgPN1swRRvd-S4oXVxc418bs9b0f5p0rIefvUbndcpdS2Dc4rlLCYq7SRs0QqKqQR7QHBAzIcefTUU3KWwggNFiRQ0xOwFtXxX_kXYF72zUJabplCiX2e0pRZ6O7-XnSFEpwism6flBNHow4oMR5TmuXUffyWG7eyhfFZvF05uihdx-Y7unFp7EcAtFPfuYzMs8dXR8RaZrHssYTWzTygEBnML4rhmGtP-BLN23rA9317qibd7pNNqookuNubiYXpLQJdMJqSh5xqhO5o3nDNmGHdUWzY7OIH-JRADL2-FzOXy55uiirPLpuilZJ-jASP5LM2jU9M9-FUkG6U-MUsQ3nQ1FWPK7cds7McTBRScwT92bjXIf0zLRe9MuJOH87AoetYmEVG9VgFbjDLrI6Wlm7gm1-zdtv6q6JAFHaRY2D_7piaEQzm3-fFc1-KSzFeDjuxD4DFnMyr-y5m1AQ78JgewLMirSgrw705ZWva9FdF0ohIHRrIZDr_1UcfPNI2x0K7i-OqxjCmJWrUiul4e2SHpA0DHPawviAruViryy0Uofcs7qDPE8Nh_aIabmqPiAgUxYm44FdNYt8AC0av4UXKZ4twflS5mV-43VAFuIVNUYv0v8bV5vVmpXmA8QPsHo_NW31xNabQq264UFVmDSLtZG6LIiHV16ckpckjK3xm-XFySDD-3rD8DYCpLSIv9ijMEwpas79Fc1uxe8Dr2jll43GsfaNobjW8xTMvIjAbrja5021qwu7in0ZLDk0GQOwQzP65DuBm8PWo-rgLGkACKOTEg0plzpc56qbe6cfMTxYl-8ZGsOKV0tn75jA_8UD7qNV3bb13609tnwh2pKG0ncJDRT-bvF32EjFxIrVYZW_3h-ucit0EhCpO2IyvAgZnvdTTSDTl0mct2eC-mq16qkjFkQWylOg1vrsT5pDtn6NBmi2su4CnSumR4e-PZLHfV6qcKZ3IVi7J6UEOK_1US4bFiQtdgwGkjV2wAztPBSVm00?></g></svg>