<?plantuml 1.2026.1?><svg xmlns="http://www.w3.org/2000/svg" xmlns:xlink="http://www.w3.org/1999/xlink" contentStyleType="text/css" data-diagram-type="DESCRIPTION" height="778px" preserveAspectRatio="none" style="width:2299px;height:778px;background:#FAFAFA;" version="1.1" viewBox="0 0 2299 778" width="2299px" zoomAndPan="magnify"><title>openSOUL &#8212; &#31995;&#32113;&#20803;&#20214;&#32317;&#35261;</title><defs/><g><rect fill="#FAFAFA" height="778" style="stroke:none;stroke-width:1;" width="2299" x="0" y="0"/><g class="title" data-source-line="8"><text fill="#000000" font-family="'Noto Sans CJK TC'" font-size="22" font-weight="bold" lengthAdjust="spacing" textLength="284.1416" x="1002.9292" y="36.2695">openSOUL &#8212; &#31995;&#32113;&#20803;&#20214;&#32317;&#35261;</text></g><!--cluster Interface Layer\n???--><g class="cluster" data-qualified-name="Interface Layer.n..." data-source-line="10" id="ent0002"><path d="M300.5,57.9102 L408.9814,57.9102 A3.75,3.75 0 0 1 411.4814,60.4102 L418.4814,96.8867 L612.5,96.8867 A2.5,2.5 0 0 1 615,99.3867 L615,191.8702 A2.5,2.5 0 0 1 612.5,194.3702 L300.5,194.3702 A2.5,2.5 0 0 1 298,191.8702 L298,60.4102 A2.5,2.5 0 0 1 300.5,57.9102" fill="#E8F4F8" style="stroke:#000000;stroke-width:1;"/><line style="stroke:#000000;stroke-width:1;" x1="298" x2="418.4814" y1="96.8867" y2="96.8867"/><text fill="#000000" font-family="'Noto Sans CJK TC'" font-size="14" font-weight="bold" lengthAdjust="spacing" textLength="107.4814" x="302" y="73.4453">Interface Layer</text><text fill="#000000" font-family="'Noto Sans CJK TC'" font-size="14" font-weight="bold" lengthAdjust="spacing" textLength="42" x="334.7407" y="89.9336">&#20171;&#38754;&#23652;</text></g><!--cluster Frontal Lobe ???\ncore/--><g class="cluster" data-qualified-name="Frontal Lobe ....ncore." data-source-line="15" id="ent0005"><path d="M206.5,218.3702 L344.2871,218.3702 A3.75,3.75 0 0 1 346.7871,220.8702 L353.7871,257.3467 L530.5,257.3467 A2.5,2.5 0 0 1 533,259.8467 L533,455.8302 A2.5,2.5 0 0 1 530.5,458.3302 L206.5,458.3302 A2.5,2.5 0 0 1 204,455.8302 L204,220.8702 A2.5,2.5 0 0 1 206.5,218.3702" fill="#DDEEFF" style="stroke:#000000;stroke-width:1;"/><line style="stroke:#000000;stroke-width:1;" x1="204" x2="353.7871" y1="257.3467" y2="257.3467"/><text fill="#000000" font-family="'Noto Sans CJK TC'" font-size="14" font-weight="bold" lengthAdjust="spacing" textLength="136.7871" x="208" y="233.9053">Frontal Lobe &#21069;&#38989;&#33865;</text><text fill="#000000" font-family="'Noto Sans CJK TC'" font-size="14" font-weight="bold" lengthAdjust="spacing" textLength="38.876" x="256.9556" y="250.3936">core/</text></g><!--cluster Hippocampus ???\nmemory/--><g class="cluster" data-qualified-name="Hippocampus ....nmemory." data-source-line="21" id="ent0009"><path d="M928.5,482.3302 L1074.7295,482.3302 A3.75,3.75 0 0 1 1077.2295,484.8302 L1084.2295,521.3067 L1719.5,521.3067 A2.5,2.5 0 0 1 1722,523.8067 L1722,599.8002 A2.5,2.5 0 0 1 1719.5,602.3002 L928.5,602.3002 A2.5,2.5 0 0 1 926,599.8002 L926,484.8302 A2.5,2.5 0 0 1 928.5,482.3302" fill="#DDFFDD" style="stroke:#000000;stroke-width:1;"/><line style="stroke:#000000;stroke-width:1;" x1="926" x2="1084.2295" y1="521.3067" y2="521.3067"/><text fill="#000000" font-family="'Noto Sans CJK TC'" font-size="14" font-weight="bold" lengthAdjust="spacing" textLength="145.2295" x="930" y="497.8653">Hippocampus &#28023;&#39340;&#36852;</text><text fill="#000000" font-family="'Noto Sans CJK TC'" font-size="14" font-weight="bold" lengthAdjust="spacing" textLength="66.7393" x="969.2451" y="514.3536">memory/</text></g><!--cluster Amygdala ???\naffect/--><g class="cluster" data-qualified-name="Amygdala ....naffect." data-source-line="28" id="ent0014"><path d="M1238.5,218.3702 L1357.6865,218.3702 A3.75,3.75 0 0 1 1360.1865,220.8702 L1367.1865,257.3467 L1427.5,257.3467 A2.5,2.5 0 0 1 1430,259.8467 L1430,455.8302 A2.5,2.5 0 0 1 1427.5,458.3302 L1238.5,458.3302 A2.5,2.5 0 0 1 1236,455.8302 L1236,220.8702 A2.5,2.5 0 0 1 1238.5,218.3702" fill="#FFFFCC" style="stroke:#000000;stroke-width:1;"/><line style="stroke:#000000;stroke-width:1;" x1="1236" x2="1367.1865" y1="257.3467" y2="257.3467"/><text fill="#000000" font-family="'Noto Sans CJK TC'" font-size="14" font-weight="bold" lengthAdjust="spacing" textLength="118.1865" x="1240" y="233.9053">Amygdala &#26447;&#20161;&#26680;</text><text fill="#000000" font-family="'Noto Sans CJK TC'" font-size="14" font-weight="bold" lengthAdjust="spacing" textLength="49.082" x="1274.5522" y="250.3936">affect/</text></g><!--cluster Basal Ganglia + Thalamus ???+??\ngating/--><g class="cluster" data-qualified-name="Basal Ganglia . Thalamus .......ngating." data-source-line="33" id="ent0017"><path d="M581.5,338.3502 L855.9648,338.3502 A3.75,3.75 0 0 1 858.4648,340.8502 L865.4648,377.3267 L865.5,377.3267 A2.5,2.5 0 0 1 868,379.8267 L868,599.8002 A2.5,2.5 0 0 1 865.5,602.3002 L581.5,602.3002 A2.5,2.5 0 0 1 579,599.8002 L579,340.8502 A2.5,2.5 0 0 1 581.5,338.3502" fill="#FFE0DD" style="stroke:#000000;stroke-width:1;"/><line style="stroke:#000000;stroke-width:1;" x1="579" x2="865.4648" y1="377.3267" y2="377.3267"/><text fill="#000000" font-family="'Noto Sans CJK TC'" font-size="14" font-weight="bold" lengthAdjust="spacing" textLength="273.4648" x="583" y="353.8853">Basal Ganglia + Thalamus &#22522;&#24213;&#26680;+&#35222;&#19992;</text><text fill="#000000" font-family="'Noto Sans CJK TC'" font-size="14" font-weight="bold" lengthAdjust="spacing" textLength="54.0381" x="692.7134" y="370.3736">gating/</text></g><!--cluster Default Mode Network ??????\ndream/--><g class="cluster" data-qualified-name="Default Mode Network .......ndream." data-source-line="38" id="ent0020"><path d="M1748.5,338.3502 L2000.1123,338.3502 A3.75,3.75 0 0 1 2002.6123,340.8502 L2009.6123,377.3267 L2289.5,377.3267 A2.5,2.5 0 0 1 2292,379.8267 L2292,599.8002 A2.5,2.5 0 0 1 2289.5,602.3002 L1748.5,602.3002 A2.5,2.5 0 0 1 1746,599.8002 L1746,340.8502 A2.5,2.5 0 0 1 1748.5,338.3502" fill="#EDE7F6" style="stroke:#000000;stroke-width:1;"/><line style="stroke:#000000;stroke-width:1;" x1="1746" x2="2009.6123" y1="377.3267" y2="377.3267"/><text fill="#000000" font-family="'Noto Sans CJK TC'" font-size="14" font-weight="bold" lengthAdjust="spacing" textLength="250.6123" x="1750" y="353.8853">Default Mode Network &#38928;&#35373;&#27169;&#24335;&#32178;&#36335;</text><text fill="#000000" font-family="'Noto Sans CJK TC'" font-size="14" font-weight="bold" lengthAdjust="spacing" textLength="53.5664" x="1848.5229" y="370.3736">dream/</text></g><!--cluster FalkorDB\n(Docker :6379)--><g class="cluster" data-qualified-name="FalkorDB.n.Docker .6379." data-source-line="45" id="ent0025"><path d="M1358,636.3002 C1358,626.3002 1587,626.3002 1587,626.3002 C1587,626.3002 1816,626.3002 1816,636.3002 L1816,751.2802 C1816,761.2802 1587,761.2802 1587,761.2802 C1587,761.2802 1358,761.2802 1358,751.2802 L1358,636.3002" fill="#FFF3E0" style="stroke:#000000;stroke-width:1;"/><path d="M1358,636.3002 C1358,646.3002 1587,646.3002 1587,646.3002 C1587,646.3002 1816,646.3002 1816,636.3002" fill="none" style="stroke:#000000;stroke-width:1;"/><text fill="#000000" font-family="'Noto Sans CJK TC'" font-size="14" font-weight="bold" lengthAdjust="spacing" textLength="64.9072" x="1554.5464" y="661.8353">FalkorDB</text><text fill="#000000" font-family="'Noto Sans CJK TC'" font-size="14" font-weight="bold" lengthAdjust="spacing" textLength="106.3125" x="1533.8438" y="678.3236">(Docker :6379)</text></g><!--cluster workspace/--><g class="cluster" data-qualified-name="workspace." data-source-line="51" id="ent0029"><path d="M13.5,498.3302 L99.7373,498.3302 A3.75,3.75 0 0 1 102.2373,500.8302 L109.2373,520.8184 L538.5,520.8184 A2.5,2.5 0 0 1 541,523.3184 L541,599.8002 A2.5,2.5 0 0 1 538.5,602.3002 L13.5,602.3002 A2.5,2.5 0 0 1 11,599.8002 L11,500.8302 A2.5,2.5 0 0 1 13.5,498.3302" fill="#F5F5F5" style="stroke:#000000;stroke-width:1;"/><line style="stroke:#000000;stroke-width:1;" x1="11" x2="109.2373" y1="520.8184" y2="520.8184"/><text fill="#000000" font-family="'Noto Sans CJK TC'" font-size="14" font-weight="bold" lengthAdjust="spacing" textLength="85.2373" x="15" y="513.8653">workspace/</text></g><!--entity CLI--><g class="entity" data-qualified-name="Interface Layer.n....CLI" data-source-line="11" id="ent0003"><rect fill="#FFFFFF" height="69.4648" rx="2.5" ry="2.5" style="stroke:#000000;stroke-width:1;" width="122.5117" x="313.74" y="108.9102"/><text fill="#000000" font-family="'Noto Sans CJK TC'" font-size="14" lengthAdjust="spacing" textLength="21.1846" x="323.74" y="132.4453">CLI</text><text fill="#000000" font-family="'Noto Sans CJK TC'" font-size="14" lengthAdjust="spacing" textLength="96.3594" x="323.74" y="148.9336">(Typer + Rich)</text><text fill="#000000" font-family="'Noto Sans CJK TC'" font-size="14" lengthAdjust="spacing" textLength="102.5117" x="323.74" y="165.4219">interface/cli.py</text></g><!--entity API--><g class="entity" data-qualified-name="Interface Layer.n....API" data-source-line="12" id="ent0004"><rect fill="#FFFFFF" height="69.4648" rx="2.5" ry="2.5" style="stroke:#000000;stroke-width:1;" width="127.8369" x="471.08" y="108.9102"/><text fill="#000000" font-family="'Noto Sans CJK TC'" font-size="14" lengthAdjust="spacing" textLength="58.6934" x="481.08" y="132.4453">REST API</text><text fill="#000000" font-family="'Noto Sans CJK TC'" font-size="14" lengthAdjust="spacing" textLength="58.1465" x="481.08" y="148.9336">(FastAPI)</text><text fill="#000000" font-family="'Noto Sans CJK TC'" font-size="14" lengthAdjust="spacing" textLength="107.8369" x="481.08" y="165.4219">interface/api.py</text></g><!--entity Agent--><g class="entity" data-qualified-name="Frontal Lobe ....ncore..Agent" data-source-line="16" id="ent0006"><rect fill="#FFFFFF" height="52.9766" rx="2.5" ry="2.5" style="stroke:#000000;stroke-width:1;" width="124.1934" x="392.9" y="269.3702"/><text fill="#000000" font-family="'Noto Sans CJK TC'" font-size="14" lengthAdjust="spacing" textLength="104.1934" x="402.9" y="292.9053">CognitiveAgent</text><text fill="#000000" font-family="'Noto Sans CJK TC'" font-size="14" lengthAdjust="spacing" textLength="95.3818" x="402.9" y="309.3936">core/agent.py</text></g><!--entity Session--><g class="entity" data-qualified-name="Frontal Lobe ....ncore..Session" data-source-line="17" id="ent0007"><rect fill="#FFFFFF" height="52.9766" rx="2.5" ry="2.5" style="stroke:#000000;stroke-width:1;" width="133.8457" x="220.08" y="389.3502"/><text fill="#000000" font-family="'Noto Sans CJK TC'" font-size="14" lengthAdjust="spacing" textLength="113.8457" x="230.08" y="412.8853">Session Manager</text><text fill="#000000" font-family="'Noto Sans CJK TC'" font-size="14" lengthAdjust="spacing" textLength="107.7412" x="230.08" y="429.3736">core/session.py</text></g><!--entity Identity--><g class="entity" data-qualified-name="Frontal Lobe ....ncore..Identity" data-source-line="18" id="ent0008"><rect fill="#FFFFFF" height="52.9766" rx="2.5" ry="2.5" style="stroke:#000000;stroke-width:1;" width="127.5498" x="389.23" y="389.3502"/><text fill="#000000" font-family="'Noto Sans CJK TC'" font-size="14" lengthAdjust="spacing" textLength="101.7324" x="399.23" y="412.8853">Identity Loader</text><text fill="#000000" font-family="'Noto Sans CJK TC'" font-size="14" lengthAdjust="spacing" textLength="107.5498" x="399.23" y="429.3736">identity/soul.py</text></g><!--entity Semantic--><g class="entity" data-qualified-name="Hippocampus ....nmemory..Semantic" data-source-line="22" id="ent0010"><rect fill="#FFFFFF" height="52.9766" rx="2.5" ry="2.5" style="stroke:#000000;stroke-width:1;" width="164.3613" x="941.82" y="533.3302"/><text fill="#000000" font-family="'Noto Sans CJK TC'" font-size="14" lengthAdjust="spacing" textLength="115.8555" x="951.82" y="556.8653">SemanticMemory</text><text fill="#000000" font-family="'Noto Sans CJK TC'" font-size="14" lengthAdjust="spacing" textLength="144.3613" x="951.82" y="573.3536">memory/semantic.py</text></g><!--entity Episodic--><g class="entity" data-qualified-name="Hippocampus ....nmemory..Episodic" data-source-line="23" id="ent0011"><rect fill="#FFFFFF" height="52.9766" rx="2.5" ry="2.5" style="stroke:#000000;stroke-width:1;" width="159.9043" x="1546.05" y="533.3302"/><text fill="#000000" font-family="'Noto Sans CJK TC'" font-size="14" lengthAdjust="spacing" textLength="110.7832" x="1556.05" y="556.8653">EpisodicMemory</text><text fill="#000000" font-family="'Noto Sans CJK TC'" font-size="14" lengthAdjust="spacing" textLength="139.9043" x="1556.05" y="573.3536">memory/episodic.py</text></g><!--entity Procedural--><g class="entity" data-qualified-name="Hippocampus ....nmemory..Procedural" data-source-line="24" id="ent0012"><rect fill="#FFFFFF" height="52.9766" rx="2.5" ry="2.5" style="stroke:#000000;stroke-width:1;" width="176.5977" x="1140.7" y="533.3302"/><text fill="#000000" font-family="'Noto Sans CJK TC'" font-size="14" lengthAdjust="spacing" textLength="126.6152" x="1150.7" y="556.8653">ProceduralMemory</text><text fill="#000000" font-family="'Noto Sans CJK TC'" font-size="14" lengthAdjust="spacing" textLength="156.5977" x="1150.7" y="573.3536">memory/procedural.py</text></g><!--entity Retrieval--><g class="entity" data-qualified-name="Hippocampus ....nmemory..Retrieval" data-source-line="25" id="ent0013"><rect fill="#FFFFFF" height="52.9766" rx="2.5" ry="2.5" style="stroke:#000000;stroke-width:1;" width="158.8447" x="1352.58" y="533.3302"/><text fill="#000000" font-family="'Noto Sans CJK TC'" font-size="14" lengthAdjust="spacing" textLength="112.3896" x="1362.58" y="556.8653">EcphoryRetrieval</text><text fill="#000000" font-family="'Noto Sans CJK TC'" font-size="14" lengthAdjust="spacing" textLength="138.8447" x="1362.58" y="573.3536">memory/retrieval.py</text></g><!--entity Neurochem--><g class="entity" data-qualified-name="Amygdala ....naffect..Neurochem" data-source-line="29" id="ent0015"><rect fill="#FFFFFF" height="52.9766" rx="2.5" ry="2.5" style="stroke:#000000;stroke-width:1;" width="162.3652" x="1251.82" y="389.3502"/><text fill="#000000" font-family="'Noto Sans CJK TC'" font-size="14" lengthAdjust="spacing" textLength="111.4326" x="1261.82" y="412.8853">NeurochemState</text><text fill="#000000" font-family="'Noto Sans CJK TC'" font-size="14" lengthAdjust="spacing" textLength="142.3652" x="1261.82" y="429.3736">affect/neurochem.py</text></g><!--entity Salience--><g class="entity" data-qualified-name="Amygdala ....naffect..Salience" data-source-line="30" id="ent0016"><rect fill="#FFFFFF" height="52.9766" rx="2.5" ry="2.5" style="stroke:#000000;stroke-width:1;" width="140.5518" x="1262.72" y="269.3702"/><text fill="#000000" font-family="'Noto Sans CJK TC'" font-size="14" lengthAdjust="spacing" textLength="117.4209" x="1272.72" y="292.9053">SalienceEvaluator</text><text fill="#000000" font-family="'Noto Sans CJK TC'" font-size="14" lengthAdjust="spacing" textLength="120.5518" x="1272.72" y="309.3936">affect/salience.py</text></g><!--entity Verifier--><g class="entity" data-qualified-name="Basal Ganglia . Thalamus .......ngating..Verifier" data-source-line="34" id="ent0018"><rect fill="#FFFFFF" height="52.9766" rx="2.5" ry="2.5" style="stroke:#000000;stroke-width:1;" width="141.4951" x="623.25" y="389.3502"/><text fill="#000000" font-family="'Noto Sans CJK TC'" font-size="14" lengthAdjust="spacing" textLength="121.4951" x="633.25" y="412.8853">ProceduralVerifier</text><text fill="#000000" font-family="'Noto Sans CJK TC'" font-size="14" lengthAdjust="spacing" textLength="118.6035" x="633.25" y="429.3736">gating/verifier.py</text></g><!--entity Inhibitor--><g class="entity" data-qualified-name="Basal Ganglia . Thalamus .......ngating..Inhibitor" data-source-line="35" id="ent0019"><rect fill="#FFFFFF" height="52.9766" rx="2.5" ry="2.5" style="stroke:#000000;stroke-width:1;" width="148.9531" x="616.52" y="533.3302"/><text fill="#000000" font-family="'Noto Sans CJK TC'" font-size="14" lengthAdjust="spacing" textLength="119.2188" x="626.52" y="556.8653">ThalamicInhibitor</text><text fill="#000000" font-family="'Noto Sans CJK TC'" font-size="14" lengthAdjust="spacing" textLength="128.9531" x="626.52" y="573.3536">gating/inhibitor.py</text></g><!--entity Dream--><g class="entity" data-qualified-name="Default Mode Network .......ndream..Dream" data-source-line="39" id="ent0021"><rect fill="#FFFFFF" height="52.9766" rx="2.5" ry="2.5" style="stroke:#000000;stroke-width:1;" width="136.792" x="1956.6" y="389.3502"/><text fill="#000000" font-family="'Noto Sans CJK TC'" font-size="14" lengthAdjust="spacing" textLength="90.3574" x="1966.6" y="412.8853">DreamEngine</text><text fill="#000000" font-family="'Noto Sans CJK TC'" font-size="14" lengthAdjust="spacing" textLength="116.792" x="1966.6" y="429.3736">dream/engine.py</text></g><!--entity Replay--><g class="entity" data-qualified-name="Default Mode Network .......ndream..Replay" data-source-line="40" id="ent0022"><rect fill="#FFFFFF" height="52.9766" rx="2.5" ry="2.5" style="stroke:#000000;stroke-width:1;" width="132.4717" x="2143.76" y="533.3302"/><text fill="#000000" font-family="'Noto Sans CJK TC'" font-size="14" lengthAdjust="spacing" textLength="87.4248" x="2153.76" y="556.8653">LiDER Replay</text><text fill="#000000" font-family="'Noto Sans CJK TC'" font-size="14" lengthAdjust="spacing" textLength="112.4717" x="2153.76" y="573.3536">dream/replay.py</text></g><!--entity Distill--><g class="entity" data-qualified-name="Default Mode Network .......ndream..Distill" data-source-line="41" id="ent0023"><rect fill="#FFFFFF" height="52.9766" rx="2.5" ry="2.5" style="stroke:#000000;stroke-width:1;" width="167.752" x="1941.12" y="533.3302"/><text fill="#000000" font-family="'Noto Sans CJK TC'" font-size="14" lengthAdjust="spacing" textLength="147.752" x="1951.12" y="556.8653">KnowledgeDistillation</text><text fill="#000000" font-family="'Noto Sans CJK TC'" font-size="14" lengthAdjust="spacing" textLength="142.7139" x="1951.12" y="573.3536">dream/distillation.py</text></g><!--entity Prune--><g class="entity" data-qualified-name="Default Mode Network .......ndream..Prune" data-source-line="42" id="ent0024"><rect fill="#FFFFFF" height="52.9766" rx="2.5" ry="2.5" style="stroke:#000000;stroke-width:1;" width="144.4209" x="1761.79" y="533.3302"/><text fill="#000000" font-family="'Noto Sans CJK TC'" font-size="14" lengthAdjust="spacing" textLength="93.3857" x="1771.79" y="556.8653">GraphPruning</text><text fill="#000000" font-family="'Noto Sans CJK TC'" font-size="14" lengthAdjust="spacing" textLength="124.4209" x="1771.79" y="573.3536">dream/pruning.py</text></g><!--entity G_Semantic--><g class="entity" data-qualified-name="FalkorDB.n.Docker .6379..G_Semantic" data-source-line="46" id="ent0026"><rect fill="#FFFFFF" height="52.9766" rx="2.5" ry="2.5" style="stroke:#000000;stroke-width:1;" width="116.3525" x="1373.82" y="692.3002"/><text fill="#000000" font-family="'Noto Sans CJK TC'" font-size="14" lengthAdjust="spacing" textLength="96.3525" x="1383.82" y="715.8353">soul_semantic</text><text fill="#000000" font-family="'Noto Sans CJK TC'" font-size="14" lengthAdjust="spacing" textLength="84" x="1383.82" y="732.3236">&#35486;&#24847;&#35352;&#25014;&#22294;&#35676;</text></g><!--entity G_Episodic--><g class="entity" data-qualified-name="FalkorDB.n.Docker .6379..G_Episodic" data-source-line="47" id="ent0027"><rect fill="#FFFFFF" height="52.9766" rx="2.5" ry="2.5" style="stroke:#000000;stroke-width:1;" width="111.8955" x="1688.05" y="692.3002"/><text fill="#000000" font-family="'Noto Sans CJK TC'" font-size="14" lengthAdjust="spacing" textLength="91.8955" x="1698.05" y="715.8353">soul_episodic</text><text fill="#000000" font-family="'Noto Sans CJK TC'" font-size="14" lengthAdjust="spacing" textLength="84" x="1698.05" y="732.3236">&#24773;&#31680;&#35352;&#25014;&#22294;&#35676;</text></g><!--entity G_Procedural--><g class="entity" data-qualified-name="FalkorDB.n.Docker .6379..G_Procedural" data-source-line="48" id="ent0028"><rect fill="#FFFFFF" height="52.9766" rx="2.5" ry="2.5" style="stroke:#000000;stroke-width:1;" width="128.5889" x="1524.71" y="692.3002"/><text fill="#000000" font-family="'Noto Sans CJK TC'" font-size="14" lengthAdjust="spacing" textLength="108.5889" x="1534.71" y="715.8353">soul_procedural</text><text fill="#000000" font-family="'Noto Sans CJK TC'" font-size="14" lengthAdjust="spacing" textLength="98" x="1534.71" y="732.3236">&#31243;&#24207;&#24615;&#35352;&#25014;&#22294;&#35676;</text></g><!--entity SoulMD--><g class="entity" data-qualified-name="workspace..SoulMD" data-source-line="52" id="ent0030"><rect fill="#FFFFFF" height="52.9766" rx="2.5" ry="2.5" style="stroke:#000000;stroke-width:1;" width="115.1289" x="409.44" y="533.3302"/><text fill="#000000" font-family="'Noto Sans CJK TC'" font-size="14" lengthAdjust="spacing" textLength="61.8926" x="419.44" y="556.8653">SOUL.md</text><text fill="#000000" font-family="'Noto Sans CJK TC'" font-size="14" lengthAdjust="spacing" textLength="95.1289" x="419.44" y="573.3536">&#20154;&#26684;+&#31070;&#32147;&#21270;&#23416;</text></g><!--entity MemMD--><g class="entity" data-qualified-name="workspace..MemMD" data-source-line="53" id="ent0031"><rect fill="#FFFFFF" height="52.9766" rx="2.5" ry="2.5" style="stroke:#000000;stroke-width:1;" width="106.4678" x="267.77" y="533.3302"/><text fill="#000000" font-family="'Noto Sans CJK TC'" font-size="14" lengthAdjust="spacing" textLength="86.4678" x="277.77" y="556.8653">MEMORY.md</text><text fill="#000000" font-family="'Noto Sans CJK TC'" font-size="14" lengthAdjust="spacing" textLength="56" x="277.77" y="573.3536">&#31934;&#36984;&#30693;&#35672;</text></g><!--entity DailyLog--><g class="entity" data-qualified-name="workspace..DailyLog" data-source-line="54" id="ent0032"><rect fill="#FFFFFF" height="52.9766" rx="2.5" ry="2.5" style="stroke:#000000;stroke-width:1;" width="205.418" x="27.29" y="533.3302"/><text fill="#000000" font-family="'Noto Sans CJK TC'" font-size="14" lengthAdjust="spacing" textLength="185.418" x="37.29" y="556.8653">memory/YYYY-MM-DD.md</text><text fill="#000000" font-family="'Noto Sans CJK TC'" font-size="14" lengthAdjust="spacing" textLength="56" x="37.29" y="573.3536">&#27599;&#26085;&#26085;&#35468;</text></g><!--link CLI to Agent--><g class="link" data-entity-1="ent0003" data-entity-2="ent0006" data-link-type="dependency" data-source-line="57" id="lnk33"><path d="M414.58,178.5602 C414.58,206.1302 414.58,238.0002 414.58,263.1702" fill="none" id="CLI-to-Agent" style="stroke:#000000;stroke-width:1;"/><polygon fill="#000000" points="414.58,269.1702,418.58,260.1702,414.58,264.1702,410.58,260.1702,414.58,269.1702" style="stroke:#000000;stroke-width:1;"/></g><!--link API to Agent--><g class="link" data-entity-1="ent0004" data-entity-2="ent0006" data-link-type="dependency" data-source-line="58" id="lnk34"><path d="M494.09,178.5602 C494.09,206.1302 494.09,238.0002 494.09,263.1702" fill="none" id="API-to-Agent" style="stroke:#000000;stroke-width:1;"/><polygon fill="#000000" points="494.09,269.1702,498.09,260.1702,494.09,264.1702,490.09,260.1702,494.09,269.1702" style="stroke:#000000;stroke-width:1;"/></g><!--link Agent to Identity--><g class="link" data-entity-1="ent0006" data-entity-2="ent0008" data-link-type="dependency" data-source-line="59" id="lnk35"><path d="M434.19,322.7902 C434.19,342.5502 434.19,363.2702 434.19,383.0002" fill="none" id="Agent-to-Identity" style="stroke:#000000;stroke-width:1;"/><polygon fill="#000000" points="434.19,389.0002,438.19,380.0002,434.19,384.0002,430.19,380.0002,434.19,389.0002" style="stroke:#000000;stroke-width:1;"/></g><!--link Identity to SoulMD--><g class="link" data-entity-1="ent0008" data-entity-2="ent0030" data-link-type="dependency" data-source-line="60" id="lnk36"><path d="M463.11,442.5802 C463.11,468.4402 463.11,501.4002 463.11,527.2102" fill="none" id="Identity-to-SoulMD" style="stroke:#000000;stroke-width:1;"/><polygon fill="#000000" points="463.11,533.2102,467.11,524.2102,463.11,528.2102,459.11,524.2102,463.11,533.2102" style="stroke:#000000;stroke-width:1;"/></g><!--link Agent to Session--><g class="link" data-entity-1="ent0006" data-entity-2="ent0007" data-link-type="dependency" data-source-line="61" id="lnk37"><path d="M392.64,296.2802 C362.95,296.2802 333.83,296.2802 333.83,296.2802 C333.83,296.2802 333.83,347.7602 333.83,383.0102" fill="none" id="Agent-to-Session" style="stroke:#000000;stroke-width:1;"/><polygon fill="#000000" points="333.83,389.0102,337.83,380.0102,333.83,384.0102,329.83,380.0102,333.83,389.0102" style="stroke:#000000;stroke-width:1;"/></g><!--link Session to DailyLog--><g class="link" data-entity-1="ent0007" data-entity-2="ent0032" data-link-type="dependency" data-source-line="62" id="lnk38"><path d="M226.39,442.5802 C226.39,468.4402 226.39,501.4002 226.39,527.2102" fill="none" id="Session-to-DailyLog" style="stroke:#000000;stroke-width:1;"/><polygon fill="#000000" points="226.39,533.2102,230.39,524.2102,226.39,528.2102,222.39,524.2102,226.39,533.2102" style="stroke:#000000;stroke-width:1;"/></g><!--link Agent to Retrieval--><g class="link" data-entity-1="ent0006" data-entity-2="ent0013" data-link-type="dependency" data-source-line="64" id="lnk39"><path d="M475.48,322.5402 C475.48,338.7202 475.48,356.2802 475.48,356.2802 C475.48,356.2802 1462.8,356.2802 1462.8,356.2802 C1462.8,356.2802 1462.8,472.0402 1462.8,527.2102" fill="none" id="Agent-to-Retrieval" style="stroke:#000000;stroke-width:1;"/><polygon fill="#000000" points="1462.8,533.2102,1466.8,524.2102,1462.8,528.2102,1458.8,524.2102,1462.8,533.2102" style="stroke:#000000;stroke-width:1;"/></g><!--link Agent to Neurochem--><g class="link" data-entity-1="ent0006" data-entity-2="ent0015" data-link-type="dependency" data-source-line="65" id="lnk40"><path d="M517.29,282.2802 C705.78,282.2802 1257.27,282.2802 1257.27,282.2802 C1257.27,282.2802 1257.27,344.1602 1257.27,383.1302" fill="none" id="Agent-to-Neurochem" style="stroke:#000000;stroke-width:1;"/><polygon fill="#000000" points="1257.27,389.1302,1261.27,380.1302,1257.27,384.1302,1253.27,380.1302,1257.27,389.1302" style="stroke:#000000;stroke-width:1;"/></g><!--link Agent to Verifier--><g class="link" data-entity-1="ent0006" data-entity-2="ent0018" data-link-type="dependency" data-source-line="66" id="lnk41"><path d="M517.48,296.2802 C588.3,296.2802 694,296.2802 694,296.2802 C694,296.2802 694,347.7602 694,383.0102" fill="none" id="Agent-to-Verifier" style="stroke:#000000;stroke-width:1;"/><polygon fill="#000000" points="694,389.0102,698,380.0102,694,384.0102,690,380.0102,694,389.0102" style="stroke:#000000;stroke-width:1;"/></g><!--link Retrieval to G_Semantic--><g class="link" data-entity-1="ent0013" data-entity-2="ent0026" data-link-type="dependency" data-source-line="68" id="lnk42"><path d="M1402.91,586.7802 C1402.91,616.1102 1402.91,656.6902 1402.91,685.9602" fill="none" id="Retrieval-to-G_Semantic" style="stroke:#000000;stroke-width:1;"/><polygon fill="#000000" points="1402.91,691.9602,1406.91,682.9602,1402.91,686.9602,1398.91,682.9602,1402.91,691.9602" style="stroke:#000000;stroke-width:1;"/></g><!--link Retrieval to G_Episodic--><g class="link" data-entity-1="ent0013" data-entity-2="ent0027" data-link-type="dependency" data-source-line="69" id="lnk43"><path d="M1497.26,586.4302 C1497.26,606.7402 1497.26,631.2802 1497.26,631.2802 C1497.26,631.2802 1694.02,631.2802 1694.02,631.2802 C1694.02,631.2802 1694.02,660.3202 1694.02,686.0602" fill="none" id="Retrieval-to-G_Episodic" style="stroke:#000000;stroke-width:1;"/><polygon fill="#000000" points="1694.02,692.0602,1698.02,683.0602,1694.02,687.0602,1690.02,683.0602,1694.02,692.0602" style="stroke:#000000;stroke-width:1;"/></g><!--link Retrieval to G_Procedural--><g class="link" data-entity-1="ent0013" data-entity-2="ent0028" data-link-type="dependency" data-source-line="70" id="lnk44"><path d="M1504.34,586.5102 C1504.34,631.9002 1504.34,719.2802 1504.34,719.2802 C1504.34,719.2802 1506.82,719.2802 1518.4,719.2802" fill="none" id="Retrieval-to-G_Procedural" style="stroke:#000000;stroke-width:1;"/><polygon fill="#000000" points="1524.4,719.2802,1515.4,715.2802,1519.4,719.2802,1515.4,723.2802,1524.4,719.2802" style="stroke:#000000;stroke-width:1;"/></g><!--link Semantic to G_Semantic--><g class="link" data-entity-1="ent0010" data-entity-2="ent0026" data-link-type="dependency" data-source-line="72" id="lnk45"><path d="M1024,586.7202 C1024,629.9902 1024,710.2802 1024,710.2802 C1024,710.2802 1254.73,710.2802 1367.54,710.2802" fill="none" id="Semantic-to-G_Semantic" style="stroke:#000000;stroke-width:1;"/><polygon fill="#000000" points="1373.54,710.2802,1364.54,706.2802,1368.54,710.2802,1364.54,714.2802,1373.54,710.2802" style="stroke:#000000;stroke-width:1;"/></g><!--link Episodic to G_Episodic--><g class="link" data-entity-1="ent0011" data-entity-2="ent0027" data-link-type="dependency" data-source-line="73" id="lnk46"><path d="M1699.99,586.7802 C1699.99,616.1102 1699.99,656.6902 1699.99,685.9602" fill="none" id="Episodic-to-G_Episodic" style="stroke:#000000;stroke-width:1;"/><polygon fill="#000000" points="1699.99,691.9602,1703.99,682.9602,1699.99,686.9602,1695.99,682.9602,1699.99,691.9602" style="stroke:#000000;stroke-width:1;"/></g><!--link Procedural to G_Procedural--><g class="link" data-entity-1="ent0012" data-entity-2="ent0028" data-link-type="dependency" data-source-line="74" id="lnk47"><path d="M1229,586.5302 C1229,612.2502 1229,647.2802 1229,647.2802 C1229,647.2802 1531.82,647.2802 1531.82,647.2802 C1531.82,647.2802 1531.82,665.8302 1531.82,686.1602" fill="none" id="Procedural-to-G_Procedural" style="stroke:#000000;stroke-width:1;"/><polygon fill="#000000" points="1531.82,692.1602,1535.82,683.1602,1531.82,687.1602,1527.82,683.1602,1531.82,692.1602" style="stroke:#000000;stroke-width:1;"/></g><!--link Verifier to G_Semantic--><g class="link" data-entity-1="ent0018" data-entity-2="ent0026" data-link-type="dependency" data-source-line="76" id="lnk48"><path d="M764.95,416.2802 C807.59,416.2802 853.65,416.2802 853.65,416.2802 C853.65,416.2802 853.65,727.2802 853.65,727.2802 C853.65,727.2802 1220.33,727.2802 1367.36,727.2802" fill="none" id="Verifier-to-G_Semantic" style="stroke:#000000;stroke-width:1;"/><polygon fill="#000000" points="1373.36,727.2802,1364.36,723.2802,1368.36,727.2802,1364.36,731.2802,1373.36,727.2802" style="stroke:#000000;stroke-width:1;"/></g><!--link Verifier to G_Procedural--><g class="link" data-entity-1="ent0018" data-entity-2="ent0028" data-link-type="dependency" data-source-line="77" id="lnk49"><path d="M717.58,442.8102 C717.58,463.4102 717.58,488.2802 717.58,488.2802 C717.58,488.2802 1538.93,488.2802 1538.93,488.2802 C1538.93,488.2802 1538.93,625.0902 1538.93,685.9002" fill="none" id="Verifier-to-G_Procedural" style="stroke:#000000;stroke-width:1;"/><polygon fill="#000000" points="1538.93,691.9002,1542.93,682.9002,1538.93,686.9002,1534.93,682.9002,1538.93,691.9002" style="stroke:#000000;stroke-width:1;"/></g><!--link Verifier to Inhibitor--><g class="link" data-entity-1="ent0018" data-entity-2="ent0019" data-link-type="dependency" data-source-line="78" id="lnk50"><path d="M670.42,442.5802 C670.42,468.4402 670.42,501.4002 670.42,527.2102" fill="none" id="Verifier-to-Inhibitor" style="stroke:#000000;stroke-width:1;"/><polygon fill="#000000" points="670.42,533.2102,674.42,524.2102,670.42,528.2102,666.42,524.2102,670.42,533.2102" style="stroke:#000000;stroke-width:1;"/></g><!--link Inhibitor to Agent--><g class="link" data-entity-1="ent0019" data-entity-2="ent0006" data-link-type="dependency" data-source-line="79" id="lnk51"><path d="M616.18,560.2802 C587.6,560.2802 561.74,560.2802 561.74,560.2802 C561.74,560.2802 561.74,309.2802 561.74,309.2802 C561.74,309.2802 546.76,309.2802 523.4,309.2802" fill="none" id="Inhibitor-to-Agent" style="stroke:#000000;stroke-width:1;"/><polygon fill="#000000" points="517.4,309.2802,526.4,313.2802,522.4,309.2802,526.4,305.2802,517.4,309.2802" style="stroke:#000000;stroke-width:1;"/></g><!--link Salience to Neurochem--><g class="link" data-entity-1="ent0016" data-entity-2="ent0015" data-link-type="dependency" data-source-line="81" id="lnk52"><path d="M1333,322.7902 C1333,342.5502 1333,363.2702 1333,383.0002" fill="none" id="Salience-to-Neurochem" style="stroke:#000000;stroke-width:1;"/><polygon fill="#000000" points="1333,389.0002,1337,380.0002,1333,384.0002,1329,380.0002,1333,389.0002" style="stroke:#000000;stroke-width:1;"/></g><!--link Neurochem to Retrieval--><g class="link" data-entity-1="ent0015" data-entity-2="ent0013" data-link-type="dependency" data-source-line="82" id="lnk53"><path d="M1383.38,442.5802 C1383.38,468.4402 1383.38,501.4002 1383.38,527.2102" fill="none" id="Neurochem-to-Retrieval" style="stroke:#000000;stroke-width:1;"/><polygon fill="#000000" points="1383.38,533.2102,1387.38,524.2102,1383.38,528.2102,1379.38,524.2102,1383.38,533.2102" style="stroke:#000000;stroke-width:1;"/></g><!--link Dream to Replay--><g class="link" data-entity-1="ent0021" data-entity-2="ent0022" data-link-type="dependency" data-source-line="84" id="lnk54"><path d="M2093.89,416.2802 C2146.49,416.2802 2210,416.2802 2210,416.2802 C2210,416.2802 2210,485.6402 2210,527.1502" fill="none" id="Dream-to-Replay" style="stroke:#000000;stroke-width:1;"/><polygon fill="#000000" points="2210,533.1502,2214,524.1502,2210,528.1502,2206,524.1502,2210,533.1502" style="stroke:#000000;stroke-width:1;"/></g><!--link Dream to Distill--><g class="link" data-entity-1="ent0021" data-entity-2="ent0023" data-link-type="dependency" data-source-line="85" id="lnk55"><path d="M2025,442.5802 C2025,468.4402 2025,501.4002 2025,527.2102" fill="none" id="Dream-to-Distill" style="stroke:#000000;stroke-width:1;"/><polygon fill="#000000" points="2025,533.2102,2029,524.2102,2025,528.2102,2021,524.2102,2025,533.2102" style="stroke:#000000;stroke-width:1;"/></g><!--link Dream to Prune--><g class="link" data-entity-1="ent0021" data-entity-2="ent0024" data-link-type="dependency" data-source-line="86" id="lnk56"><path d="M1956.31,416.2802 C1901.56,416.2802 1834,416.2802 1834,416.2802 C1834,416.2802 1834,485.6402 1834,527.1502" fill="none" id="Dream-to-Prune" style="stroke:#000000;stroke-width:1;"/><polygon fill="#000000" points="1834,533.1502,1838,524.1502,1834,528.1502,1830,524.1502,1834,533.1502" style="stroke:#000000;stroke-width:1;"/></g><!--link Replay to G_Episodic--><g class="link" data-entity-1="ent0022" data-entity-2="ent0027" data-link-type="dependency" data-source-line="87" id="lnk57"><path d="M2232.08,586.7202 C2232.08,634.0602 2232.08,727.2802 2232.08,727.2802 C2232.08,727.2802 1934.19,727.2802 1805.99,727.2802" fill="none" id="Replay-to-G_Episodic" style="stroke:#000000;stroke-width:1;"/><polygon fill="#000000" points="1799.99,727.2802,1808.99,731.2802,1804.99,727.2802,1808.99,723.2802,1799.99,727.2802" style="stroke:#000000;stroke-width:1;"/></g><!--link Replay to G_Procedural--><g class="link" data-entity-1="ent0022" data-entity-2="ent0028" data-link-type="dependency" data-source-line="88" id="lnk58"><path d="M2187.92,586.7602 C2187.92,621.4402 2187.92,677.2802 2187.92,677.2802 C2187.92,677.2802 1617.55,677.2802 1617.55,677.2802 C1617.55,677.2802 1617.55,678.1302 1617.55,686.2702" fill="none" id="Replay-to-G_Procedural" style="stroke:#000000;stroke-width:1;"/><polygon fill="#000000" points="1617.55,692.2702,1621.55,683.2702,1617.55,687.2702,1613.55,683.2702,1617.55,692.2702" style="stroke:#000000;stroke-width:1;"/></g><!--link Distill to G_Episodic--><g class="link" data-entity-1="ent0023" data-entity-2="ent0027" data-link-type="dependency" data-source-line="89" id="lnk59"><path d="M2052.96,586.7202 C2052.96,629.9902 2052.96,710.2802 2052.96,710.2802 C2052.96,710.2802 1895.42,710.2802 1806.31,710.2802" fill="none" id="Distill-to-G_Episodic" style="stroke:#000000;stroke-width:1;"/><polygon fill="#000000" points="1800.31,710.2802,1809.31,714.2802,1805.31,710.2802,1809.31,706.2802,1800.31,710.2802" style="stroke:#000000;stroke-width:1;"/></g><!--link Distill to G_Semantic--><g class="link" data-entity-1="ent0023" data-entity-2="ent0026" data-link-type="dependency" data-source-line="90" id="lnk60"><path d="M1997.04,586.7202 C1997.04,601.2702 1997.04,616.2802 1997.04,616.2802 C1997.04,616.2802 1461.09,616.2802 1461.09,616.2802 C1461.09,616.2802 1461.09,655.4902 1461.09,685.8602" fill="none" id="Distill-to-G_Semantic" style="stroke:#000000;stroke-width:1;"/><polygon fill="#000000" points="1461.09,691.8602,1465.09,682.8602,1461.09,686.8602,1457.09,682.8602,1461.09,691.8602" style="stroke:#000000;stroke-width:1;"/></g><!--link Prune to G_Semantic--><g class="link" data-entity-1="ent0024" data-entity-2="ent0026" data-link-type="dependency" data-source-line="91" id="lnk61"><path d="M1771.33,586.7802 C1771.33,594.7002 1771.33,601.2802 1771.33,601.2802 C1771.33,601.2802 1432,601.2802 1432,601.2802 C1432,601.2802 1432,651.1402 1432,685.8302" fill="none" id="Prune-to-G_Semantic" style="stroke:#000000;stroke-width:1;"/><polygon fill="#000000" points="1432,691.8302,1436,682.8302,1432,686.8302,1428,682.8302,1432,691.8302" style="stroke:#000000;stroke-width:1;"/></g><!--link Prune to G_Episodic--><g class="link" data-entity-1="ent0024" data-entity-2="ent0027" data-link-type="dependency" data-source-line="92" id="lnk62"><path d="M1790.41,586.7802 C1790.41,616.1102 1790.41,656.6902 1790.41,685.9602" fill="none" id="Prune-to-G_Episodic" style="stroke:#000000;stroke-width:1;"/><polygon fill="#000000" points="1790.41,691.9602,1794.41,682.9602,1790.41,686.9602,1786.41,682.9602,1790.41,691.9602" style="stroke:#000000;stroke-width:1;"/></g><!--link Prune to G_Procedural--><g class="link" data-entity-1="ent0024" data-entity-2="ent0028" data-link-type="dependency" data-source-line="93" id="lnk63"><path d="M1780.87,586.7402 C1780.87,617.1002 1780.87,662.2802 1780.87,662.2802 C1780.87,662.2802 1581.8,662.2802 1581.8,662.2802 C1581.8,662.2802 1581.8,671.3002 1581.8,685.8602" fill="none" id="Prune-to-G_Procedural" style="stroke:#000000;stroke-width:1;"/><polygon fill="#000000" points="1581.8,691.8602,1585.8,682.8602,1581.8,686.8602,1577.8,682.8602,1581.8,691.8602" style="stroke:#000000;stroke-width:1;"/></g><?plantuml-src VLHTQzn657tVNp7Tl3GOnu6qITg7WhsIN3UxYV6wXL2LC9PcjOEb6J6QTLXAmI5D8IJ1BMrTF-J3ARLhGer9sZZ6Jjh_KhnQ-L_qZgIHj6lJNMDspfmpzywzSyzxiai2Wa8VKrQBbYaBiS01yYaZiXyIn8Niyig6IpguvqkBCtaTWx1-dKkEsfX5gF7PDRJOg5V83Wz2pWYJRTdt2HB4aPXvFgbGbh2px0dUOsw3-roWSzQq-bOO8J2mHsPE4JzKtrfDKWbdyv2mzetFc-ZVrP_GyC-ZuUkNWtjtZu_sXmVlakrtjLf-3AhFCKb41pi4DN6V29iT7pquUVBhuELlTNJEl6fzO5r5NzSG-hBHdBFP-ujG1O4cq09rkkTjHhLwol7fXR3_5S9my-QS4YoOxKKqFQzK5eua_1eHuB0Gm5RjcqfEbe1wOXyr-H91W_kFJfu_IdwuRpE72p85QHc6QLfMdXRt69LqXKnxKDcSWzNludIrKDGsYIBA6MfX1WIHSwCCrUoSfFXpBWYfx4CUs5LycWDJ4U_vMg1P8pVub8OXTt0GzY8Kltvpilr7yizVDWj8m4K_ku9b6KPsXJO9C1pXjDBTWXNbS9bPjbOICwGHTqz9I0vhYQOfoRpW3d5x0ljZeh3OqBAIciPomYxm5eWKbAnWln0AZMXTGHcfnNJGzrpiOnG_MJi-kXDl7jWCTphm-bKXBFWq6baXhfCUH8O9R4iiIS5Y6jPn2bvQFUnJmXnYGjmUbbmKkYZVAGgOhqUocy50GxDg42c6XxtOXLG3QDlWsU7Wy6V8TYBPNZy-sB2PXoLbNfQqUL5thopM5qJG3bKF9MUkv81EG1EKB8j3dJdMfKiqJJjNKOqKBqm38uaRcVMW5dS9L4JUvc8PdMn-d-pinZlF1s_NXlklaZTxDdC5mO7AsZJCAzRbB6j3WIRpmDWqWwGh7JGbA6QJ6kO2j1OyiQ-f8bsLRLShnRt6-6sVk1unQ2IfxyE5EDCYju8LKJ9CQMS53hlpeWSMuMb9c2tBTzbZQVTSBF4IZfHLO7-P2sC6JCRWpZ9uqyUNBrtvw7psiYwP5xFhge6zfGVAPicBf_6tQydEHlpT_k3nUhBxE3r_zbPrnbADdYYRnNVl3VTMpz1KXopLb0Dbi-7EWy7XMhpw-nd2ofZ1dJhS1vD1TTN7A5GEMTUkdji4-Fc5m0M7FZoCDzzE3BUU3lT_73nS7-mUPEyRWhSCHMsPhHiBDrFoyDNV9tSEXi-sajsDb0NJdv7oARu9dybMQz8mKdwyjnR_iWL_oOk7MOimzVjDxgaSmTdHvEGdkQM2RLTNwd-wBXonC525vjcLDEsqsfOLLWIhy4fNAR7I0KgicAvQeKZnIbV7DuhMZMzKMbFJwl73j7Zyh59xnc4woV73nl2AP6Idj8BYLwK5DUrmOpKgVetLivOEUGwcCrm2UZ9B99k-Z7YwVXMqadn-oZXz52wAa4RuFx1IunAiXFiF?></g></svg>